<svg height="512" viewBox="0 0 512 512" width="512" xmlns="http://www.w3.org/2000/svg" xmlns:xlink="http://www.w3.org/1999/xlink"><radialGradient id="a" cx="100%" cy="118.823437%" r="160.71875%"><stop offset="0" stop-color="#1e2d86"/><stop offset="1" stop-color="#4b5cc5"/></radialGradient><g fill="none" fill-rule="evenodd"><rect fill="url(#a)" fill-rule="nonzero" height="512" rx="120" width="512"/><path d="m149.9048 167.8748 130.65-54.4032c2.0076-.8316 4.2224-.6264 5.822.1964 1.6188.8328 1.6188 1.6376 1.6188 1.6872v40.1436.1996 65.2456c-.0576 3.5044-2.5152 7.7624-8.2512 10.1332l-.0212.0088-55.7776 23.2208v-.0096l-39.954 16.6428-27.5804 11.482.052.1248c-5.0176 2.6116-9.0876 6.274-11.9132 10.6168-1.9328-4.8448-2.9184-9.8992-2.9184-14.9652v-100.0568c0-3.5276 2.4472-7.8584 8.2512-10.2576zm156.3864-52.5196v21.1444c5.8656-.8016 12.4172.4892 17.7308 4.8964l.0136.0112 37.3536 31.1012c.248.2064.492.416.7316.6276l2.752 2.2912c14.9256 12.4276 23.7244 29.706 23.7244 48.1344v100.082c0 12.31-8.2792 22.498-19.544 27.16l-.014.0056-130.6384 54.3988-.0108.004c-7.2308 3-15.0652 2.332-21.202-.824-6.1184-3.148-11.546-9.4264-11.546-17.958v-21.1684c-5.8636.7996-12.412-.492-17.7236-4.8972l-37.3668-31.1124c-.2072-.172-.4112-.3464-.612-.5224l-2.8792-2.3972c-14.9256-12.4272-23.7244-29.706-23.7244-48.134v-100.0568c0-12.3108 8.2804-22.4996 19.5464-27.1608l.0116-.0048 130.6492-54.4032c7.2304-3 15.0648-2.3308 21.202.8256 6.118 3.1468 11.546 9.4252 11.546 17.9568zm-100.6492 166.3892v64.28l-.0024.0032-.0184.0224c-.154.1816-.5888.5572-1.41.8404-1.778.6136-3.5692.2544-4.6084-.6044l-.0052-.004-33.8236-28.1624.0064-.0076-3.9304-3.2724c-3.1096-2.7916-3.7912-5.9092-3.2896-8.4784.5448-2.7912 2.7588-6.1588 7.7044-8.2176l24.8408-10.3476zm18.3036-1.138c.1604-3.458 2.6348-7.5804 8.2428-9.8984l.0216-.0088 123.312-51.336-.0592-.142c5.0216-2.6108 9.0952-6.2736 11.9232-10.6176 1.9312 4.8428 2.9156 9.8944 2.9156 14.958v100.082c0 3.5276-2.4472 7.8588-8.2512 10.2576l-.022.0092-130.65 54.4036h-.0004c-2.0084.8332-4.2212.6268-5.8216-.1968-1.6192-.8324-1.6192-1.6376-1.6192-1.6872v-39.794c.0056-.19.0084-.3812.0084-.574zm122.2164-96.9696-.0092.0112 4.0164 3.344c3.0424 2.7732 3.7084 5.8596 3.2108 8.4072-.5448 2.7912-2.7568 6.158-7.7024 8.2168l-.002.0008-39.3844 16.4056v-64.2772c.0076-.01.0168-.0216.0284-.0348.1536-.1816.5884-.5576 1.4096-.8404 1.7784-.6136 3.5692-.2544 4.6088.6044l.0048.004z" fill="#fff"/></g></svg>