<svg height="12" viewBox="0 0 12 12" width="12" xmlns="http://www.w3.org/2000/svg"><path d="m17.644854 8.04935187c.4685304-.46853038.4685304-1.22942371 0-1.69795409-.4685304-.46853037-1.2294237-.46853037-1.6979541 0l-3.9468999 3.95064812-3.95064813-3.94689987c-.46853038-.46853038-1.22942371-.46853038-1.69795409 0-.46853037.46853037-.46853037 1.2294237 0 1.69795408l3.95064812 3.94689989-3.94689987 3.9506481c-.46853038.4685304-.46853038 1.2294237 0 1.6979541.46853037.4685304 1.2294237.4685304 1.69795408 0l3.94689989-3.9506481 3.9506481 3.9468999c.4685304.4685304 1.2294237.4685304 1.6979541 0s.4685304-1.2294237 0-1.6979541l-3.9506481-3.9468999z" fill="#1c293b" transform="translate(-6 -6)"/></svg>