<svg height="284" viewBox="0 0 1058 284" width="1058" xmlns="http://www.w3.org/2000/svg"><path d="m11 264.75c6.673782-30.548885 17.9080434-76.047773 20.3913534-85.721711 36.1725509-145.4282157 101.2671856-155.7105151 132.4930626-155.7105151 94.335859 0 102.753183 155.9698161-24.573798 155.9698161-60.7862413 0-22.499386-101.247239 57.425296-24.902911 12.975045 13.224373 27.95469 25.770574 49.337086 25.770574 67.607864 0 73.601716-126.6587807 69.841845-158.3234758 12.935153 34.2876289 76.623576 12.6559049 104.538373 19.3578498-11.36937 35.0256407-65.62321 138.975599 12.207114 138.975599 33.499752 0 54.941986-27.426114 48.609047-56.886747-10.202514-45.2481012 16.016851-101.4467018 70.869079-101.4467018 90.93502 0 99.960705 157.4558128 1.78519 157.4558128-82.876729 0-94.505402-103.6806833 2.154197-103.6806833 50.91284 0 58.592152 8.4372699 74.220051 16.2362594 49.9255 24.9228579 84.123371-28.6927017 59.709143-70.0113889 0 0 96.200834 31.9239965 117.383767 92.2813938 13.91252 39.653174-44.001459 66.042082-80.602855 66.042082-62.421835 0-19.268092-95.4628228 53.2665-26.887565 12.506308 11.828135 29.111573 26.887565 57.285672 26.887565 41.757505 0 99.870947-36.102739 118.780006-88.0827049 32.153378-88.39187175-62.162534-101.37689004-82.946542-24.8031801-8.975819 33.060934 8.217861 113.115267 100.878234 113.115267 37.090079 0 59.200509-18.998817 59.200509-18.998817" fill="none" stroke="#000" stroke-linecap="round" stroke-linejoin="round" stroke-width="32" transform="translate(7 1)"/></svg>
