<svg viewBox="0 0 640 480" xmlns="http://www.w3.org/2000/svg" xmlns:xlink="http://www.w3.org/1999/xlink"><clipPath id="a"><path d="m-79.7 0h682.7v512h-682.7z"/></clipPath><g clip-path="url(#a)" fill-rule="evenodd" transform="matrix(.9375 0 0 .9375 74.7 0)"><path d="m-79.68 0h682.67v512h-682.67z" fill="#fff"/><path d="m-79.59 0h682.58v204.8h-682.67z"/><path d="m21.3 203.2h480v112h-480z" fill="#0072c6"/><path d="m602.99.1v511.9h-341.39l341.39-512zm-682.67 0v511.9h341.29l-341.29-512z" fill="#ce1126"/><path d="m440.4 203.3-76.4-19.3 64.9-49-79.7 11.4 41-69.5-70.7 41 12.8-80.9-47.9 63.8-19.3-74-21.7 76.3-47.8-65 13.7 83.2-70.8-43.3 41 69.5-77.4-12.5 63.8 47.8-79.9 20.5h354.3z" fill="#fcd116"/></g></svg>