<svg viewBox="0 0 640 480" xmlns="http://www.w3.org/2000/svg" xmlns:xlink="http://www.w3.org/1999/xlink"><clipPath id="a"><path d="m0 0h640v480h-640z"/></clipPath><g clip-path="url(#a)"><path d="m0 0h640v480h-640z" fill="#c00"/><path d="m0 0h640v34.3h-640z" fill="#c00"/><path d="m0 34.3h640v34.3h-640z" fill="#fff"/><path d="m0 68.6h640v34.3h-640z" fill="#c00"/><path d="m0 102.9h640v34.1h-640z" fill="#fff"/><path d="m0 137.1h640v34.3h-640z" fill="#c00"/><path d="m0 171.4h640v34.3h-640z" fill="#fff"/><path d="m0 205.7h640v34.3h-640z" fill="#c00"/><path d="m0 240h640v34.3h-640z" fill="#fff"/><path d="m0 274.3h640v34.3h-640z" fill="#c00"/><path d="m0 308.6h640v34.3h-640z" fill="#fff"/><path d="m0 342.9h640v34.1h-640z" fill="#c00"/><path d="m0 377.1h640v34.3h-640z" fill="#fff"/><path d="m0 411.4h640v34.3h-640z" fill="#c00"/><path d="m0 445.7h640v34.3h-640z" fill="#fff"/><path d="m0 .5h320v274.3h-320z" fill="#006"/><path d="m207.5 73.8 6 40.7 23-34-12.4 39.2 35.5-20.8-28.1 30 41-3.2-38.3 14.8 38.3 14.8-41-3.2 28.1 30-35.5-20.8 12.3 39.3-23-34.1-6 40.7-5.9-40.7-23 34 12.4-39.2-35.5 20.8 28-30-41 3.2 38.4-14.8-38.3-14.8 41 3.2-28.1-30 35.5 20.8-12.4-39.3 23 34.1zm-33.3 1.7a71.1 71.1 0 0 0 -100 65 71.1 71.1 0 0 0 100 65 80 80 0 0 1 -83.2 6.2 80 80 0 0 1 -43.4-71.2 80 80 0 0 1 126.6-65z" fill="#fc0"/></g></svg>