<svg height="18.2476" width="20.0867" xmlns="http://www.w3.org/2000/svg"><path d="m0 0h20.0867v18.2476h-20.0867z" opacity="0"/><path d="m4.508 18.2476h10.7094c2.0099 0 3.1056-1.0716 3.1056-3.0736v-9.11366h-16.92065v9.11366c0 2.01 1.0957 3.0736 3.10565 3.0736zm2.20899-8.47555c-.46114 0-.78828-.32715-.78828-.80605v-.30625c0-.47891.32539-.79453.78828-.79453h6.30291c.4629 0 .7963.31562.7963.79453v.30625c0 .4789-.3369.80605-.7963.80605zm-4.94434-5.141h16.18355c1.1756 0 1.7692-.67891 1.7692-1.84473v-.92207c0-1.164056-.5936-1.8447188-1.7692-1.8447188h-16.18355c-1.124019 0-1.77265.6806628-1.77265 1.8447188v.92207c0 1.16582.598826 1.84473 1.77265 1.84473z"/></svg>