<svg height="18.1695" width="22.4277" xmlns="http://www.w3.org/2000/svg"><path d="m0 0h22.4277v18.1695h-22.4277z" opacity="0"/><path d="m9.71327 18.1633c.75373 0 1.30603-.5604 1.30603-1.3043v-3.5213h.2446c3.5939 0 5.7869 1.0396 7.3394 3.9254.3858.7023.8614.8597 1.3612.8597.6669 0 1.1921-.6304 1.1921-1.8236 0-7.09724-3.1129-11.44978-9.8927-11.44978h-.2446v-3.50333c0-.743944-.5523-1.34609-1.32204-1.34609-.51719 0-.87988.212109-1.43965.737303l-7.733197 7.207027c-.386133.36661-.524413.7666-.524413 1.13731 0 .35566.148046.77245.527928 1.13106l7.729682 7.2631c.50918.4763.93145.6875 1.45566.6875zm-.60937-2.4828c-.05683 0-.11543-.0293-.16426-.0862l-6.70274-6.33063c-.07637-.07637-.10567-.1252-.10567-.18203 0-.0586.0293-.11368.10567-.18204l6.69474-6.4045c.04882-.03906.10742-.07285.16425-.07285.08965 0 .14375.06035.14375.14551v3.70645c0 .22285.10391.31875.32676.31875h1.2541c6.3424 0 8.5274 4.21074 8.691 8.85174 0 .0729-.0275.1022-.0746.1022-.039 0-.0586-.0276-.0879-.0942-1.1611-2.4388-4.0304-3.8744-8.5285-3.8744h-1.2541c-.22285 0-.32676.0959-.32676.3188v3.6263c0 .0932-.0541.1571-.13574.1571z"/></svg>