<svg height="19.5379" width="19.5668" xmlns="http://www.w3.org/2000/svg"><path d="m0 0h19.5668v19.5379h-19.5668z" opacity="0"/><path d="m1.71563 8.9707h5.41113c1.11386 0 1.76034-.65449 1.76034-1.76835v-5.34161c0-.60273-.45644-1.059367-1.06542-1.059367-.61074 0-1.05741.448627-1.05741 1.059367v.70079l.21035 3.07071-2.2881-2.4045-2.80997-2.837507c-.19941-.205663-.46796-.3111311-.74804-.3111311-.656833 0-1.12851.4501921-1.12851 1.1007781 0 .29257.118749.56659.322654.77226l2.823246 2.81973 2.40451 2.27833-3.08126-.20234h-.75352c-.61074 0-1.06738.43867-1.06738 1.05742 0 .61249.44863 1.06542 1.06738 1.06542zm9.62007 9.877c.6108 0 1.0574-.4407 1.0574-1.0594v-.7871l-.2103-3.0645 2.2881 2.4063 2.866 2.8838c.1977.2074.4582.3111.7481.3111.6488 0 1.1205-.4502 1.1205-1.099 0-.2944-.1108-.5684-.3164-.7723l-2.8776-2.8775-2.4143-2.2784 3.0911.2041h.8416c.6107 0 1.0674-.4386 1.0674-1.0494 0-.6205-.4487-1.0654-1.0674-1.0654h-5.4992c-1.1157 0-1.7604.6447-1.7604 1.7586v5.4297c0 .6107.4467 1.0594 1.0654 1.0594z"/></svg>