<svg height="20.0586" width="20.5016" xmlns="http://www.w3.org/2000/svg"><path d="m0 0h20.5016v20.0586h-20.5016z" opacity="0"/><path d="m10.0732 1.83613c.5047 0 .919-.41426.919-.918946 0-.502928-.4143-.917184-.919-.917184-.50289 0-.91715.414256-.91715.917184 0 .504686.41426.918946.91715.918946zm2.8123.45898c.503 0 .919-.41426.919-.91718 0-.504689-.416-.918946-.919-.918946-.5029 0-.9189.414257-.9189.918946 0 .50292.416.91718.9189.91718zm2.5514 1.28984c.5047 0 .9189-.41601.9189-.91894s-.4142-.91894-.9189-.91894c-.5029 0-.9172.41601-.9172.91894s.4143.91894.9172.91894zm2.016 2.02227c.503 0 .919-.41426.919-.91894 0-.50293-.416-.91719-.919-.91719-.5029 0-.9189.41426-.9189.91719 0 .50468.416.91894.9189.91894zm1.2864 2.51582c.5029 0 .9189-.41602.9189-.91894 0-.50293-.416-.91895-.9189-.91895-.503 0-.919.41602-.919.91895 0 .50292.416.91894.919.91894zm.482 2.82036c.5029 0 .9189-.4161.9189-.919 0-.50292-.416-.91893-.9189-.91893s-.919.41601-.919.91893c0 .5029.4161.919.919.919zm-.482 2.8185c.5029 0 .9189-.4143.9189-.9172 0-.5047-.416-.9189-.9189-.9189-.503 0-.919.4142-.919.9189 0 .5029.416.9172.919.9172zm-1.2864 2.5238c.503 0 .919-.4142.919-.9189 0-.5029-.416-.9172-.919-.9172-.5029 0-.9189.4143-.9189.9172 0 .5047.416.9189.9189.9189zm-2.016 2.016c.5047 0 .9189-.416.9189-.9189s-.4142-.9189-.9189-.9189c-.5029 0-.9172.416-.9172.9189s.4143.9189.9172.9189zm-2.5514 1.2881c.503 0 .919-.416.919-.9189s-.416-.919-.919-.919c-.5029 0-.9189.4161-.9189.919s.416.9189.9189.9189zm-2.8123.459c.5047 0 .919-.4142.919-.9189 0-.503-.4143-.9172-.919-.9172-.50289 0-.91715.4142-.91715.9172 0 .5047.41426.9189.91715.9189zm-2.81051-.459c.50293 0 .91894-.416.91894-.9189s-.41601-.919-.91894-.919c-.51094 0-.91894.4161-.91894.919s.408.9189.91894.9189zm-2.55312-1.2881c.50468 0 .91894-.416.91894-.9189s-.41426-.9189-.91894-.9189c-.51094 0-.91719.416-.91719.9189s.40625.9189.91719.9189zm-2.02227-2.016c.50293 0 .91894-.4142.91894-.9189 0-.5029-.41601-.9172-.91894-.9172s-.91894.4143-.91894.9172c0 .5047.41601.9189.91894.9189zm-1.28633-2.5238c.50293 0 .91895-.4143.91895-.9172 0-.5047-.41602-.9189-.91895-.9189-.502925 0-.918939.4142-.918939.9189 0 .5029.416014.9172.918939.9172zm-.482028-2.8185c.502928 0 .918938-.4161.918938-.919 0-.50292-.41601-.91893-.918938-.91893s-.918942.41601-.918942.91893c0 .5029.416014.919.918942.919zm.482028-2.82036c.50293 0 .91895-.41602.91895-.91894 0-.50293-.41602-.91895-.91895-.91895-.502925 0-.918939.41602-.918939.91895 0 .50292.416014.91894.918939.91894zm1.28633-2.51582c.50293 0 .91894-.41426.91894-.91894 0-.50293-.41601-.91719-.91894-.91719s-.91894.41426-.91894.91719c0 .50468.41601.91894.91894.91894zm2.02227-2.02227c.50468 0 .91894-.41601.91894-.91894s-.41426-.91894-.91894-.91894c-.51094 0-.91719.41601-.91719.91894s.40625.91894.91719.91894zm2.55312-1.28984c.50293 0 .91894-.41426.91894-.91718 0-.504689-.41601-.918946-.91894-.918946-.51094 0-.91894.414257-.91894.918946 0 .50292.408.91718.91894.91718z" fill-opacity=".85"/><path d="m10.083 5.02382c-.49999 0-.86425.34844-.86425.84141v4.61567l.08066 2.006-.88164-1.0963-1.09883-1.142c-.13926-.1578-.34668-.24997-.58613-.24997-.45664 0-.79277.33087-.79277.78047 0 .2367.07363.4248.23047.5869l3.22832 3.2598c.2164.2234.4166.3271.68417.3271.2658 0 .474-.1117.6922-.3271l3.2203-3.2598c.1551-.1621.2367-.3502.2367-.5869 0-.4496-.3521-.78047-.8088-.78047-.2297 0-.4371.08417-.5861.24997l-1.0891 1.1332-.8914 1.1149.0824-2.0158v-4.61567c0-.49297-.366-.84141-.8562-.84141z"/></svg>