<svg height="18.5387" width="15.4807" xmlns="http://www.w3.org/2000/svg"><path d="m0 0h15.4807v18.5387h-15.4807z" opacity="0"/><path d="m7.55878 0c-.62909 0-1.066.437692-1.066 1.07909v12.13191l.11699 3.1826.64179-.3201-3.2588-3.634-2.21426-2.1875c-.18515-.1932-.45468-.30824-.75761-.30824-.588471 0-1.02089.43964-1.02089 1.03414 0 .2854.110741.5414.333201.7719l6.430669 6.4484c.21191.2217.4998.3405.79491.3405.29512 0 .58125-.1188.79492-.3405l6.4387-6.4484c.2242-.2305.3269-.4865.3269-.7719 0-.5945-.4324-1.03414-1.0209-1.03414-.3029 0-.5662.11504-.7576.30824l-2.2178 2.1875-3.265 3.634.64804.3201.11699-3.1826v-12.13191c0-.641398-.43515-1.07909-1.06425-1.07909z"/></svg>