<svg height="23.6398" width="17.8035" xmlns="http://www.w3.org/2000/svg"><path d="m0 0h17.8035v23.6398h-17.8035z" opacity="0"/><path d="m0 12.5059c0 4.8406 3.8916 8.7357 8.72597 8.7357 4.83263 0 8.71623-3.8951 8.71623-8.7357 0-.5743-.4024-.9829-.9758-.9829-.5557 0-.9322.4086-.9322.9829 0 3.7834-3.0311 6.8224-6.80823 6.8224-3.77891 0-6.8127-3.039-6.8127-6.8224 0-3.80357 3.00918-6.82584 6.78282-6.82584.63848 0 1.23692.04981 1.73751.16192l-2.66153 2.63224c-.16934.1791-.26855.3955-.26855.6498 0 .53535.40585.93948.93319.93948.2793 0 .50176-.09047.6666-.26507l4.01109-4.04121c.2075-.19942.2952-.4334.2952-.70371 0-.25703-.1038-.5123-.2952-.70195l-4.01109-4.073241c-.1666-.1861321-.39531-.278319-.6666-.278319-.52734 0-.93319.42363-.93319.960736 0 .254294.09921.470704.26054.649804l2.36214 2.33106c-.43225-.08184-.92405-.13789-1.43011-.13789-4.8291 0-8.69609 3.86601-8.69609 8.70219z"/></svg>