<svg height="18.8164" width="19.1609" xmlns="http://www.w3.org/2000/svg"><path d="m0 0h19.1609v18.8164h-19.1609z" opacity="0"/><path d="m1.06542 8.16835c.61074 0 1.05742-.44863 1.05742-1.05937v-.69903l-.20235-3.07247 2.28009 2.4045 2.81798 2.83751c.19766.20742.4582.30312.74003.30312.65684 0 1.12851-.44218 1.12851-1.09276 0-.30059-.11074-.5666-.3164-.77227l-2.8295-2.81973-2.40626-2.27833 3.09103.20234h.74551c.61074 0 1.06737-.43867 1.06737-1.05566 0-.6205-.44863-1.06541918-1.06737-1.06541918h-5.41114c-1.115616 0-1.76034.64472418-1.76034 1.75858918v5.34961c0 .60273.454684 1.05937 1.06542 1.05937zm10.55468 10.64805h5.4129c1.1139 0 1.7666-.6447 1.7666-1.7603v-5.3497c0-.6009-.4547-1.0576-1.0734-1.0576-.6028 0-1.0574.4487-1.0574 1.0576v.7008l.2103 3.0707-2.2881-2.4045-2.81-2.8357c-.1976-.2074-.4662-.30313-.748-.30313-.6488 0-1.12851.44223-1.12851 1.09103 0 .3006.11871.5683.32441.7722l2.8215 2.8198 2.4143 2.2783-3.0911-.2023h-.7535c-.609 0-1.0674.4386-1.0674 1.0574 0 .6205.4584 1.0654 1.0674 1.0654z"/></svg>