<svg height="18.1695" width="26.3082" xmlns="http://www.w3.org/2000/svg"><path d="m0 0h26.3082v18.1695h-26.3082z" opacity="0"/><path d="m14.8666 18.1633c.7519 0 1.306-.5604 1.306-1.3043v-3.5213h.2428c3.5957 0 5.7869 1.0396 7.3395 3.9254.3875.7023.8613.8597 1.3611.8597.667 0 1.1922-.6304 1.1922-1.8236 0-7.09724-3.1209-11.44978-9.8928-11.44978h-.2428v-3.50333c0-.743944-.5541-1.34609-1.322-1.34609-.519 0-.8799.212109-1.4414.737303l-7.73148 7.207027c-.38789.36661-.52441.7666-.52441 1.13731 0 .35566.14629.77245.52617 1.13106l7.72972 7.2631c.5091.4763.9314.6875 1.4574.6875zm-.6111-2.4828c-.0569 0-.1137-.0293-.1706-.0862l-6.69645-6.33063c-.07637-.07637-.10566-.1252-.10566-.18203 0-.0586.02929-.11368.10566-.18204l6.69645-6.4045c.0489-.03906.1057-.07285.1625-.07285.0897 0 .1456.06035.1456.14551v3.70645c0 .22285.1039.31875.3267.31875h1.2541c6.3424 0 8.5256 4.21074 8.691 8.85174 0 .0729-.0293.1022-.0763.1022-.0373 0-.0586-.0276-.0862-.0942-1.1611-2.4388-4.0322-3.8744-8.5285-3.8744h-1.2541c-.2228 0-.3267.0959-.3267.3188v3.6263c0 .0932-.0559.1571-.1375.1571zm-4.54223 2.4828c.75373 0 1.30603-.5604 1.30603-1.3043v-2.501l-1.77966-1.533v2.6984c0 .0932-.05586.1571-.1455.1571-.04883 0-.10567-.0293-.1625-.0862l-6.6965-6.33063c-.07637-.07637-.10391-.1252-.10391-.18203 0-.0586.02754-.11368.10391-.18204l6.6965-6.4045c.04882-.03906.10566-.07285.1625-.07285.08964 0 .1455.06035.1455.14551v2.75449l1.77966-1.50741v-2.46875c0-.743944-.5523-1.34609-1.32204-1.34609-.51719 0-.87988.212109-1.4414.737303l-7.739455 7.207027c-.38789.36661-.516405.7666-.516405 1.13731 0 .35566.140038.77245.518163 1.13106l7.737697 7.2631c.50293.4763.93144.6875 1.45741.6875z"/></svg>
