<svg height="15.1519" width="18.8125" xmlns="http://www.w3.org/2000/svg"><path d="m0 0h18.8125v15.1519h-18.8125z" opacity="0"/><path d="m18.4512 7.56054c0-.29511-.1205-.58124-.3422-.79492l-6.4325-6.414646c-.2464-.248241-.5025-.350974-.7773-.350974-.6051 0-1.04471.432419-1.04471 1.02089 0 .30293.11504.56445.31001.75761l2.1875 2.21602 3.6449 3.33301.3394-.63417-3.3783-.19883h-11.88067c-.641396 0-1.07733.43691-1.07733 1.06601s.435934 1.06601 1.07733 1.06601h11.88067l3.3783-.19883-.3394-.62441-3.6449 3.32329-2.1875 2.2142c-.19497.1834-.31001.4547-.31001.7576 0 .5885.43961 1.0209 1.04471 1.0209.2748 0 .5309-.1107.7613-.3349l6.4485-6.42894c.2217-.21367.3422-.4998.3422-.79492z"/></svg>