<svg height="21.6762" width="20.7242" xmlns="http://www.w3.org/2000/svg"><path d="m0 0h20.7242v21.6762h-20.7242z" opacity="0"/><path d="m0 11.3203c0 6.4109 4.36953 10.3559 10.4676 10.3559 1.6088 0 3.034-.2018 3.9224-.5002.651-.2166.8711-.5629.8711-.9647 0-.414-.3007-.7174-.75-.7174-.14 0-.305.0196-.4994.0614-1.0543.249-1.9742.4179-3.2246.4179-5.32597 0-8.91582-3.2015-8.91582-8.5961 0-5.19879 3.40762-8.79957 8.50082-8.79957 4.559 0 8.2289 2.82402 8.2289 7.79217 0 2.7903-.9293 4.6647-2.4282 4.6647-.9986 0-1.5601-.6057-1.5601-1.642v-6.26956c0-.6205-.3422-.98847-.9369-.98847-.5832 0-.9334.36797-.9334.98847v.93575h-.1195c-.4963-1.18887-1.6854-1.92422-3.1229-1.92422-2.51172 0-4.26094 2.12832-4.26094 5.21343 0 3.1303 1.75704 5.2958 4.33868 5.2958 1.49786 0 2.62406-.7887 3.17986-2.1491h.116c.226 1.3418 1.3881 2.1518 2.9452 2.1518 2.8107 0 4.5441-2.6336 4.5441-6.4047 0-5.65977-4.1576-9.358986-9.9748-9.358986-6.11369 0-10.3881 4.167966-10.3881 10.437686zm9.96093 3.5641c-1.61973 0-2.64336-1.3531-2.64336-3.5217 0-2.1383 1.0334-3.49494 2.65137-3.49494 1.65806 0 2.70116 1.33262 2.70116 3.46294 0 2.1685-1.0654 3.5537-2.70917 3.5537z"/></svg>