<svg height="20.4808" width="18.948" xmlns="http://www.w3.org/2000/svg"><path d="m0 0h18.948v20.4808h-18.948z" opacity="0"/><path d="m0 15.5152c0 .8272.617185 1.3733 1.63281 1.3733h4.01914c.07813 1.8777 1.60371 3.5826 3.81718 3.5826 2.22327 0 3.74877-1.6969 3.82697-3.5826h4.0191c1.0076 0 1.6328-.5461 1.6328-1.3733 0-1.0381-.9574-1.9275-1.8342-2.7808-.6884-.6721-.8554-2.0184-.981-3.36291-.1281-3.7-1.1998-6.16817-3.7535-7.08809-.3725-1.302149-1.4508-2.2834-2.91017-2.2834-1.44961 0-2.53594.981251-2.90039 2.2834-2.55371.91992-3.62539 3.38809-3.75351 7.08809-.12558 1.34451-.29258 2.69081-.98105 3.36291-.884764.8533-1.83418 1.7427-1.83418 2.7808zm2.33045-.4125v-.1136c.24961-.278.81797-.8014 1.29766-1.3502.67324-.7707.98945-2.1764 1.0914-4.02972.10977-3.967 1.32832-5.28575 2.90157-5.71661.23711-.05684.37383-.16875.39238-.44024.04512-.99101.60118-1.65996 1.45567-1.65996.86427 0 1.41227.66895 1.46547 1.65996.0185.27149.1472.3834.3843.44024 1.5813.43086 2.7998 1.74961 2.9096 5.71661.102 1.85332.4234 3.25902 1.0834 4.02972.486.5488 1.027 1.0722 1.2783 1.3502v.1136zm5.16309 1.7858h3.96096c-.0746 1.2314-.8723 2.0158-1.98537 2.0158-1.10332 0-1.90899-.7844-1.97559-2.0158z"/></svg>
