<svg height="21.9636" width="22.0247" xmlns="http://www.w3.org/2000/svg"><path d="m0 0h22.0247v21.9636h-22.0247z" opacity="0"/><path d="m6.17635 8.9292c-.05153.42962-.08482.90287-.09916 1.4214-.09395 1.8533-.41817 3.2589-1.0834 4.0296-.4877.5489-1.04805 1.0723-1.29766 1.3502v.1137h9.40417l1.788 1.7857h-.2346c-.0763 1.8858-1.6037 3.5827-3.8171 3.5827-2.22327 0-3.74885-1.7049-3.82698-3.5827h-4.01914c-1.00761 0-1.63281-.546-1.63281-1.3732 0-1.0381.95743-1.9275 1.84219-2.7808.68848-.6721.84746-2.0184.97304-3.3629.03626-1.04706.14808-1.99545.35085-2.83416zm2.67486 8.7006c.07461 1.2315.87227 2.0159 1.98539 2.0159 1.1033 0 1.909-.7844 1.9756-2.0159zm4.89379-14.60502c2.5537.91992 3.6173 3.38808 3.7535 7.08812.1176 1.3445.2845 2.6908.973 3.3629.8848.8533 1.8342 1.7427 1.8342 2.7808 0 .348-.1089.6462-.3121.8741l-3.9515-3.9493c-.2508-.7509-.391-1.7088-.4479-2.8308-.1178-3.96704-1.3363-5.2858-2.9096-5.71666-.2371-.05683-.3738-.16875-.3924-.44023-.0451-.99102-.6011-1.65996-1.4556-1.65996-.86429 0-1.41234.66894-1.46546 1.65996-.01856.27148-.14551.3834-.38438.44023-.36611.09976-.71278.24712-1.02946.46705l-1.3606-1.35986c.38812-.29763.83061-.53656 1.32972-.71635.37246-1.30215 1.45078-2.283402 2.91018-2.283402 1.4496 0 2.5359.981252 2.9084 2.283402z"/><path d="m1.76802 2.82223 17.73238 17.71117c.3035.3097.8059.3097 1.0996 0 .3-.3036.3036-.7899 0-1.0996l-17.72085-17.71117c-.30351-.30352-.79961-.30352-1.11113 0-.29199.29199-.29199.80585 0 1.0996z"/></svg>
