<svg height="20.7957" width="19.1828" xmlns="http://www.w3.org/2000/svg"><path d="m0 0h19.1828v20.7957h-19.1828z" opacity="0"/><path d="m1.61347 16.7742h15.59273c.9953 0 1.6153-.5408 1.6153-1.3556 0-1.0276-.9522-1.9135-1.8201-2.7598-.6833-.665-.8467-2.0641-.9706-3.33828-.1369-3.59532-1.1857-6.12775-3.7201-7.04239-.4009-1.289848-1.4578-2.27637226-2.90485-2.27637226-1.4373 0-2.50214.98652426-2.89511 2.27637226-2.53438.91464-3.58496 3.44707-3.72012 7.04239-.12382 1.27418-.28906 2.67328-.9705 3.33828-.875978.8463-1.82012 1.7322-1.82012 2.7598 0 .8148.610154 1.3556 1.61347 1.3556zm7.79238 4.0215c1.72695 0 2.98715-1.2356 3.11235-2.6555h-6.21488c.12343 1.4199 1.38535 2.6555 3.10253 2.6555z"/></svg>