<svg height="14.1293" width="12.2328" xmlns="http://www.w3.org/2000/svg"><path d="m0 0h12.2328v14.1293h-12.2328z" opacity="0"/><path d="m1.74531 14.1248h5.16347c3.0375 0 4.96272-1.5986 4.96272-4.0441 0-1.91488-1.4332-3.31644-3.43323-3.41508v-.07812c1.64743-.22461 2.78793-1.45762 2.78793-3.03672 0-2.20234-1.69808-3.55078-4.47171-3.55078h-5.00918c-1.09414 0-1.74531.643358-1.74531 1.76679v10.59921c0 1.1172.65117 1.7588 1.74531 1.7588zm1.7744-2.3771v-3.80493h2.19279c1.65274 0 2.58516.65703 2.58516 1.87539 0 1.25644-.85645 1.92954-2.49219 1.92954zm0-5.91704v-3.41973h2.1299c1.32852 0 2.11973.61446 2.11973 1.66582 0 1.0959-.87032 1.75391-2.33751 1.75391z"/></svg>