<svg height="18.2476" width="24.373" xmlns="http://www.w3.org/2000/svg"><path d="m0 0h24.373v18.2476h-24.373z" opacity="0"/><path d="m3.6416 18.2476h16.7285c2.1176 0 3.2053-1.0876 3.2053-3.1714v-2.5258c0-.5992-.3623-.9651-.9615-.9651-.5975 0-.9518.3659-.9518.9651v2.365c0 .9489-.5092 1.419-1.4029 1.419h-16.49866c-.90801 0-1.40118-.4701-1.40118-1.419v-2.365c0-.5992-.37031-.9651-.96151-.9651-.589453 0-.951755.3659-.951755.9651v2.5258c0 2.0918 1.095705 3.1714 3.195505 3.1714zm0-18.2280688c-2.0998 0-3.195505 1.0779288-3.195505 3.1714788v2.11485c0 .59922.362302.97304.951755.97304.5912 0 .96151-.37382.96151-.97304v-1.95587c0-.94883.49317-1.41719 1.40118-1.41719h16.49866c.8937 0 1.4029.46836 1.4029 1.41719v1.95587c0 .59922.3623.97304.9518.97304.6072 0 .9615-.37382.9615-.97304v-2.11485c0-2.08554-1.0877-3.1714788-3.2053-3.1714788zm-2.24375 10.3015688c.77343 0 1.3996-.6342 1.3996-1.40763 0-.76367-.62617-1.38984-1.3996-1.38984-.763673 0-1.39785.62617-1.39785 1.38984 0 .77343.634177 1.40763 1.39785 1.40763zm21.21605 0c.7654 0 1.3978-.6342 1.3978-1.40763 0-.76367-.6324-1.38984-1.3978-1.38984-.7717 0-1.3979.61816-1.3979 1.38984 0 .77343.6262 1.40763 1.3979 1.40763z"/><path d="m8.90429 13.6957c.43418 0 .72402-.2187.87754-.7639l.60217-1.7777h3.2553l.6021 1.7777c.1535.5371.4514.7639.8856.7639.521 0 .8597-.3271.8597-.8109 0-.1703-.0346-.3422-.125-.5992l-2.5006-6.84753c-.2375-.66425-.6894-.99648-1.3636-.99648-.6592 0-1.0961.33047-1.3274.99648l-2.50858 6.84753c-.08242.257-.125.4289-.125.5912 0 .4998.33692.8189.86777.8189zm1.89411-3.89102 1.1635-3.53321h.1074l1.1618 3.53321z"/></svg>