<svg height="22.3425" width="22.3305" xmlns="http://www.w3.org/2000/svg"><path d="m0 0h22.3305v22.3425h-22.3305z" opacity="0"/><path d="m5.25959 19.7087h2.09454c.18476 0 .31894.0534.45664.1911l1.48633 1.4765c1.2674 1.2772 2.4609 1.2692 3.7283 0l1.4863-1.4765c.1457-.1377.2719-.1911.4647-.1911h2.0865c1.799 0 2.6447-.8412 2.6447-2.6464v-2.0866c0-.191.0551-.3189.1928-.4646l1.4766-1.4846c1.2754-1.2674 1.2674-2.4609 0-3.73006l-1.4766-1.48457c-.1394-.1377-.1928-.27188-.1928-.45664v-2.09454c0-1.79101-.8412-2.64472-2.6447-2.64472h-2.0865c-.1928 0-.3207-.04707-.4647-.18477l-1.4863-1.476559c-1.2691-1.277147-2.4609-1.269139-3.7283.001758l-1.48633 1.474801c-.13594.1377-.27188.18477-.45664.18477h-2.09454c-1.79902 0-2.64472.83594-2.64472 2.64472v2.09454c0 .18476-.04707.3207-.18477.45664l-1.476559 1.48457c-1.275389 1.26916-1.267381 2.46266 0 3.73006l1.476559 1.4846c.1377.1457.18477.2736.18477.4646v2.0866c0 1.799.84746 2.6464 2.64472 2.6464zm4.81721-3.7293c-.36896 0-.66877-.1515-.94201-.5056l-2.39316-2.9112c-.17461-.2234-.26426-.4568-.26426-.6962 0-.5055.39453-.909.89824-.909.30156 0 .53574.1117.78691.434l1.88218 2.3898 4.0364-6.46543c.2137-.3414.4904-.50898.798-.50898.478 0 .9276.34218.9276.84589 0 .2334-.1182.47207-.2547.68848l-4.5705 7.12554c-.2227.3336-.5393.5127-.9047.5127z"/></svg>