<svg height="20.1812" width="20.1767" xmlns="http://www.w3.org/2000/svg"><path d="m0 0h20.1767v20.1812h-20.1767z" opacity="0"/><path d="m10.0875 20.175c5.5266 0 10.0892-4.569 10.0892-10.0875 0-5.52656-4.5707-10.0875-10.0972-10.0875-5.51681 0-10.0795 4.56094-10.0795 10.0875 0 5.5185 4.5707 10.0875 10.0875 10.0875zm-1.08848-5.2664c-.36719 0-.66875-.1596-.94199-.5137l-2.39317-2.9111c-.17461-.2235-.26425-.4488-.26425-.6963 0-.4975.39453-.90098.89023-.90098.30957 0 .54374.10371.79492.42598l1.88223 2.3898 4.03811-6.46539c.2119-.3334.4886-.50898.7883-.50898.4876 0 .9355.34218.9355.8539 0 .22539-.1182.46406-.2547.68847l-4.56874 7.1176c-.22441.3416-.54101.5207-.90644.5207z"/></svg>