<svg height="10.6957" width="17.2969" xmlns="http://www.w3.org/2000/svg"><path d="m0 0h17.2969v10.6957h-17.2969z" opacity="0"/><path d="m8.65331 10.6957c.33203-.0018.63242-.1293.87929-.3887l7.4356-7.61756c.2134-.21347.3287-.47753.3287-.78671 0-.63789-.4952-1.141008-1.1278-1.141008-.3091 0-.597.124023-.8175.341798l-7.17641 7.35997h.95527l-7.18341-7.35997c-.21425-.21426-.50038-.341798-.81933-.341798-.634365 0-1.12772.503118-1.12772 1.141008 0 .30742.116991.57148.326951.79472l7.439069 7.60955c.26289.2629.54902.3887.88729.3887z"/></svg>