<svg height="17.2969" width="9.93397" xmlns="http://www.w3.org/2000/svg"><path d="m0 0h9.93397v17.2969h-9.93397z" opacity="0"/><path d="m0 8.64355c0 .33027.117772.61015.382417.87128l7.614073 7.44527c.21347.2215.47929.3288.79472.3288.63788 0 1.14276-.4952 1.14276-1.1278 0-.3189-.13555-.5988-.35156-.8193l-6.86681-6.70001 6.86681-6.69649c.21777-.22227.35156-.5084.35156-.81758 0-.634365-.50488-1.12772-1.14276-1.12772-.31719 0-.58125.107226-.79472.3207l-7.614073 7.45157c-.262887.25312-.38065926.53925-.382417.87128z"/></svg>