<svg height="18.8053" width="28.5904" xmlns="http://www.w3.org/2000/svg"><path d="m0 0h28.5904v18.8053h-28.5904z" opacity="0"/><path d="m11.3988 18.7589c.6494.1789 1.2465-.1729 1.4432-.8293l4.8053-16.47307c.1806-.614647-.1196-1.211713-.769-1.3906171-.6414-.1789049-1.2144.1007791-1.4271.8292901l-4.7813 16.399197c-.1966.6645.0555 1.2793.7289 1.4645z"/><path d="m.00001557 9.39774c-.00175774.3332.14531143.66716.42968343.92046l6.317781 5.7024c.51738.466 1.20839.4555 1.6451-.0309.43672-.4961.37813-1.1871-.12324-1.6371l-5.46662-4.95486 5.46662-4.95489c.50137-.45176.55996-1.15078.12324-1.6371-.43671-.48632-1.12772-.49687-1.6451-.03086l-6.317781 5.69434c-.284372.25957-.43144117.59355-.42968343.92851zm28.22908443 0c.0017-.33496-.1373-.66894-.4235-.92851l-6.316-5.69434c-.5254-.46601-1.2101-.45546-1.6451.03086-.4367.48632-.3861 1.18534.1135 1.6371l5.4764 4.95489-5.4764 4.95486c-.4996.45-.5502 1.141-.1135 1.6371.435.4864 1.1197.4969 1.6451.0309l6.316-5.7024c.2862-.2533.4252-.58726.4235-.92046z"/></svg>