<svg height="10.6406" width="17.2969" xmlns="http://www.w3.org/2000/svg"><path d="m0 0h17.2969v10.6406h-17.2969z" opacity="0"/><path d="m.326951 8.00801c-.20996.20547-.326951.47929-.326951.79472 0 .63613.493355 1.133 1.12772 1.133.31895 0 .61309-.11953.81933-.3418l7.18341-7.35196h-.95527l7.17641 7.35196c.2125.22402.5084.3418.8175.3418.6326 0 1.1278-.49687 1.1278-1.133 0-.31719-.1153-.59101-.3287-.79472l-7.4356-7.609577c-.24687-.26113-.54726-.39491752-.87929-.398433-.33827 0-.63241.135546-.88729.398433z"/></svg>