<svg height="20.1812" width="20.1767" xmlns="http://www.w3.org/2000/svg"><path d="m0 0h20.1767v20.1812h-20.1767z" opacity="0"/><path d="m10.0875 20.175c5.5266 0 10.0892-4.569 10.0892-10.0875 0-5.52656-4.5707-10.0875-10.0972-10.0875-5.51681 0-10.0795 4.56094-10.0795 10.0875 0 5.5185 4.5707 10.0875 10.0875 10.0875zm-2.30391-5.0797c-.34668-.3564-.33789-.9062.00176-1.2246l4.01755-3.7752-4.01755-3.76367c-.35117-.32989-.34317-.89473.01152-1.22461.32812-.31132.85488-.29257 1.20429.03731l4.13324 3.87402c.6201.5793.6121 1.58615 0 2.15745l-4.13324 3.8838c-.3166.3033-.91601.3193-1.21757.0355z"/></svg>