<svg height="17.2969" width="9.93397" xmlns="http://www.w3.org/2000/svg"><path d="m0 0h9.93397v17.2969h-9.93397z" opacity="0"/><path d="m9.93397 8.64355c-.00352-.33203-.12754-.61816-.39043-.87128l-7.60606-7.45157c-.22148-.213474-.48554-.3207-.80448-.3207-.628122 0-1.133.493355-1.133 1.12772 0 .30918.12578.59531.343551.81758l6.866809 6.69649-6.866809 6.70001c-.216013.2205-.343551.5004-.343551.8193 0 .6326.504878 1.1278 1.133 1.1278.31543 0 .583-.1073.80448-.3288l7.60606-7.44527c.26465-.26113.39043-.54101.39043-.87128z"/></svg>