<svg height="18.6223" width="19.2666" xmlns="http://www.w3.org/2000/svg"><path d="m0 0h19.2666v18.6223h-19.2666z" opacity="0"/><path d="m4.28769 8.56035c2.34805 0 4.28242-1.93789 4.28242-4.28418 0-2.34629-1.93437-4.27617-4.28242-4.27617-2.36933 0-4.28769 1.92988-4.28769 4.27617s1.91836 4.28418 4.28769 4.28418zm-.00175-1.78905c-1.41016 0-2.51466-1.09473-2.51466-2.49337 0-1.4004 1.1045-2.53067 2.51466-2.53067 1.39863 0 2.50489 1.13027 2.50489 2.53067 0 1.39864-1.10626 2.49337-2.50489 2.49337zm10.70446 1.78905c2.3481 0 4.2762-1.93789 4.2762-4.28418 0-2.34629-1.9281-4.27617-4.2762-4.27617-2.3675 0-4.2859 1.92988-4.2859 4.27617s1.9184 4.28418 4.2859 4.28418zm-.0017-1.78905c-1.4164 0-2.5129-1.09473-2.5129-2.49337 0-1.4004 1.0965-2.53067 2.5129-2.53067 1.4004 0 2.5066 1.13027 2.5066 2.53067 0 1.39864-1.1062 2.49337-2.5066 2.49337zm-10.70101 11.8404c2.34805 0 4.28242-1.9379 4.28242-4.2859 0-2.3365-1.93437-4.2744-4.28242-4.2744-2.36933 0-4.28769 1.9379-4.28769 4.2744 0 2.348 1.91836 4.2859 4.28769 4.2859zm-.00175-1.7828c-1.41016 0-2.51466-1.093-2.51466-2.5014 0-1.3906 1.1045-2.5289 2.51466-2.5289 1.39863 0 2.50489 1.1383 2.50489 2.5289 0 1.4084-1.10626 2.5014-2.50489 2.5014zm10.70446 1.7828c2.3481 0 4.2762-1.9379 4.2762-4.2859 0-2.3365-1.9281-4.2744-4.2762-4.2744-2.3675 0-4.2859 1.9379-4.2859 4.2744 0 2.348 1.9184 4.2859 4.2859 4.2859zm-.0017-1.7828c-1.4164 0-2.5129-1.093-2.5129-2.5014 0-1.3906 1.0965-2.5289 2.5129-2.5289 1.4004 0 2.5066 1.1383 2.5066 2.5289 0 1.4084-1.1062 2.5014-2.5066 2.5014z"/></svg>