<svg height="20.1812" width="20.1767" xmlns="http://www.w3.org/2000/svg"><path d="m0 0h20.1767v20.1812h-20.1767z" opacity="0"/><path d="m5.15057 11.2986h4.92893c.4353 0 .7785-.3369.7785-.7785v-6.39746c0-.43535-.3432-.7705-.7785-.7705-.4336 0-.77052.33515-.77052.7705v5.62697h-4.15841c-.4416 0-.77851.33689-.77851.77049 0 .4416.33691.7785.77851.7785zm4.93693 8.8764c5.5266 0 10.0892-4.569 10.0892-10.0875 0-5.52656-4.5707-10.0875-10.0972-10.0875-5.51681 0-10.0795 4.56094-10.0795 10.0875 0 5.5185 4.5707 10.0875 10.0875 10.0875zm0-1.9871c-4.49513 0-8.0924-3.6053-8.0924-8.1004 0-4.49513 3.58927-8.1004 8.0844-8.1004 4.4951 0 8.1102 3.60527 8.1102 8.1004 0 4.4951-3.6071 8.1004-8.1022 8.1004z"/></svg>