<svg height="20.1812" width="20.1767" xmlns="http://www.w3.org/2000/svg"><path d="m0 0h20.1767v20.1812h-20.1767z" opacity="0"/><path d="m5.15057 11.2986c-.4416 0-.77851-.3369-.77851-.7785 0-.4336.33691-.77049.77851-.77049h4.15841v-5.62697c0-.43535.33692-.7705.77052-.7705.4353 0 .7785.33515.7785.7705v6.39746c0 .4416-.3432.7785-.7785.7785zm4.93693 8.8764c5.5266 0 10.0892-4.569 10.0892-10.0875 0-5.52656-4.5707-10.0875-10.0972-10.0875-5.51681 0-10.0795 4.56094-10.0795 10.0875 0 5.5185 4.5707 10.0875 10.0875 10.0875z"/></svg>