<svg height="22.1949" width="23.6074" xmlns="http://www.w3.org/2000/svg"><path d="m0 0h23.6074v22.1949h-23.6074z" opacity="0"/><path d="m11.8037 18.9279c3.9248 0 7.126-3.1931 7.126-7.134 0-3.93453-3.2012-7.11792-7.126-7.11792-3.92479 0-7.13397 3.18339-7.13397 7.11792 0 3.9489 3.20918 7.134 7.13397 7.134zm0-12.41678c2.9151 0 5.2944 2.37579 5.2944 5.28278 0 2.9151-2.3793 5.2944-5.2944 5.2944-2.91152 0-5.29883-2.3793-5.29883-5.2944 0-2.90699 2.38731-5.28278 5.29883-5.28278zm-3.33984 9.61428 3.93924-3.877c.3369-.3228.3299-.814 0-1.1652-.289-.3068-.8406-.3139-1.1439 0l-3.8637 3.9445zm-4.11171 4.3613c.70722 0 1.27245-.5635 1.27245-1.2724 0-.7073-.57324-1.2707-1.27245-1.2707-.70899 0-1.27246.5714-1.27246 1.2707 0 .7169.57324 1.2724 1.27246 1.2724zm-3.07168-7.4123c.70722 0 1.27245-.5812 1.27245-1.2805 0-.7169-.58124-1.2724-1.27245-1.2724-.707229 0-1.28047.5732-1.28047 1.2724 0 .7073.581249 1.2805 1.28047 1.2805zm3.07168-7.41405c.70722 0 1.27245-.57324 1.27245-1.27246 0-.71523-.57324-1.27246-1.27245-1.27246-.70899 0-1.27246.56523-1.27246 1.27246 0 .70898.57324 1.27246 1.27246 1.27246zm7.45155-3.10743c.7072 0 1.2725-.57324 1.2725-1.28046 0-.708985-.5733-1.27246-1.2725-1.27246-.7152 0-1.2724.573241-1.2724 1.27246 0 .71523.5652 1.28046 1.2724 1.28046zm7.4436 3.09141c.7072 0 1.2724-.57324 1.2724-1.27246 0-.71523-.5732-1.27246-1.2724-1.27246-.7153 0-1.2805.56524-1.2805 1.27246 0 .70723.5732 1.27246 1.2805 1.27246zm3.0797 7.43007c.7072 0 1.2804-.5812 1.2804-1.2805 0-.7169-.5812-1.2724-1.2804-1.2724-.7153 0-1.2805.5732-1.2805 1.2724 0 .7073.5812 1.2805 1.2805 1.2805zm-3.0877 7.4203c.7072 0 1.2724-.5635 1.2724-1.2724 0-.7073-.5732-1.2707-1.2724-1.2707-.7153 0-1.2805.5714-1.2805 1.2707 0 .717.5732 1.2724 1.2805 1.2724z"/></svg>
