<svg height="24.8633" width="20.3135" xmlns="http://www.w3.org/2000/svg"><path d="m0 0h20.3135v24.8633h-20.3135z" opacity="0"/><path d="m4.83125 6.20838h3.11952l6.85803 6.90352v6.7207h2.3332c2.0855 0 3.1715-1.1037 3.1715-3.2035v-13.42559c0-2.10156-1.086-3.20351-3.1715-3.20351h-9.13928c-2.08554 0-3.17147 1.09394-3.17147 3.20351zm5.42945-2.71288c-.43493 0-.66012-.30254-.66012-.62011v-.21563c0-.30097.20761-.62011.66012-.62011h4.625c.4446 0 .6602.31914.6602.62011v.21563c0 .31757-.235.62011-.6602.62011zm-10.2607 18.142c0 2.1096 1.07968 3.2035 3.17148 3.2035h9.14102c2.0918 0 3.1715-1.1037 3.1715-3.2035v-7.5162c0-1.308-.1658-1.9199-.984-2.7541l-5.29298-5.37482c-.78613-.80215-1.45586-.98399-2.63222-.98399h-3.40332c-2.08379 0-3.17148 1.09395-3.17148 3.20351zm1.91327-.1189v-13.19576c0-.892.46836-1.40118 1.41895-1.40118h3.00098v5.34594c0 1.3992.6918 2.0812 2.07323 2.0812h5.16247v7.1698c0 .908-.4763 1.4091-1.4171 1.4091h-8.82759c-.94258 0-1.41094-.5011-1.41094-1.4091zm6.68223-8.8571c-.40293 0-.575-.1703-.575-.575v-4.78945l5.2826 5.36445z"/></svg>