<svg height="4.13398" width="18.7221" xmlns="http://www.w3.org/2000/svg"><path d="m0 0h18.7221v4.13398h-18.7221z" opacity="0"/><path d="m2.0621 4.13398c1.14922 0 2.08789-.93067 2.08789-2.06211 0-1.154293-.91582-2.06210438-2.08789-2.06210438-1.132219 0-2.0621.91835738-2.0621 2.06210438 0 1.13144.929881 2.06211 2.0621 2.06211zm7.29981 0c1.13149 0 2.06209-.93067 2.06209-2.06211 0-1.154293-.9078-2.06210438-2.06209-2.06210438-1.13398 0-2.05586.91835738-2.05586 2.06210438 0 1.13144.92188 2.06211 2.05586 2.06211zm7.29809 0c1.1314 0 2.0621-.93067 2.0621-2.06211 0-1.154293-.9079-2.06210438-2.0621-2.06210438-1.1581 0-2.0799.91835738-2.0799 2.06210438 0 1.13144.9218 2.06211 2.0799 2.06211z"/></svg>