<svg height="22.8094" width="24.2703" xmlns="http://www.w3.org/2000/svg"><path d="m0 0h24.2703v22.8094h-24.2703z" opacity="0"/><path d="m3.20351 22.8094h17.74749c1.8623 0 2.958-1.086 2.958-3.1635v-9.80391c0-1.50469-.3682-2.3289-1.4485-3.06425l-8.4039-5.77598c-1.5625-1.0710963-2.6738-1.0710963-4.23629 0l-8.37989 5.77598c-1.072261.74336-1.44042 1.55956-1.44042 3.06425v9.80391c0 2.0775 1.10371 3.1635 3.20351 3.1635zm-.0041-1.7947c-.89825 0-1.4047-.4905-1.4047-1.4208v-9.96461c0-.71621.19063-1.11719.70528-1.46328l8.47771-5.80802c.7074-.48379 1.2141-.48379 1.9135 0l8.5178 5.80802c.5146.33808.7053.74707.7053 1.46328v9.97271c0 .9222-.5163 1.4127-1.4145 1.4127zm8.75019-9.0286c-.6672 0-1.2797.2414-1.8732.7826l-9.129726 8.217 1.168546 1.1686 8.95488-8.067c.2852-.2559.5766-.3793.8795-.3793.3047 0 .5961.1234.8813.3793l8.9548 8.067 1.1668-1.1686-9.1279-8.217c-.5953-.5412-1.2061-.7826-1.875-.7826zm-9.76016-4.4113-1.16855 1.17832 6.90196 6.90198 1.17733-1.1615zm19.53806-.00801-6.9267 6.92681 1.1853 1.1615 6.91-6.90999z"/></svg>