<svg height="17.1445" width="21.9088" xmlns="http://www.w3.org/2000/svg"><path d="m0 0h21.9088v17.1445h-21.9088z" opacity="0"/><path d="m10.9695 9.60801c.4127 0 .7891-.19434 1.2293-.63457l8.5137-8.45215c-.3754-.339259-1.051-.5035165-2.009-.5035165h-15.7455c-.83613 0-1.42988.1562505-1.77148.4714845l8.55371 8.484182c.43397.43222.80857.63457 1.22927.63457zm-10.707782 5.88689 7.008002-6.94569-6.999409-6.90527c-.1763663.30332-.270311.81426-.270311 1.5373v10.79176c0 .7163.085156 1.2256.261718 1.5219zm2.941792 1.6496h15.74549c.8572 0 1.4606-.165 1.811-.4898l-7.143-7.08869-.6024.61039c-.6826.6568-1.3279.9568-2.0451.9568-.7252 0-1.37224-.3-2.04685-.9568l-.60859-.60688-7.12695 7.07718c.39394.3328 1.06132.4978 2.0164.4978zm18.45159-1.6576c.1668-.3043.2537-.8057.2537-1.5139v-10.79176c0-.70702-.094-1.21796-.2623-1.51327l-6.9852 6.88124z"/></svg>