<svg height="20.1812" width="20.5381" xmlns="http://www.w3.org/2000/svg"><path d="m0 0h20.5381v20.1812h-20.5381z" opacity="0"/><path d="m20.1767 10.0875c0 5.5185-4.5626 10.0875-10.0892 10.0875-5.5168 0-10.0875-4.569-10.0875-10.0875 0-5.52656 4.56269-10.0875 10.0795-10.0875 5.5265 0 10.0972 4.56094 10.0972 10.0875zm-11.2849 3.9357c0 .6377.54296 1.1153 1.1992 1.1153.6545 0 1.194-.4696 1.194-1.1153 0-.6404-.5315-1.1197-1.194-1.1197-.66424 0-1.1992.4856-1.1992 1.1197zm.14316-8.0736.1375 4.9268c.01855.5791.34394.8974.91854.8974.5533 0 .877-.3086.8955-.9009l.1455-4.91529c.0186-.59668-.4293-1.02148-1.0525-1.02148-.6295 0-1.06309.41679-1.04454 1.01347z"/></svg>