<svg height="19.973" width="13.6658" xmlns="http://www.w3.org/2000/svg"><path d="m0 0h13.6658v19.973h-13.6658z" opacity="0"/><path d="m6.82714 14.6199c-.41855 0-.68085-.2615-.69238-.6863l-.0959-3.1418c-.01328-.4354.31836-.7572.78828-.7572.45312 0 .80332.3263.79004.7652l-.10117 3.1338c-.01153.4248-.27207.6863-.68887.6863zm-.00625 2.4647c-.49121 0-.90371-.3877-.90371-.8817 0-.4984.40625-.8826.90371-.8826.5082 0 .92597.3797.92597.8826 0 .494-.41425.8817-.92597.8817zm-4.56035 2.3726h9.14476c1.483 0 2.2605-.7953 2.2605-2.3963v-6.9166c0-1.59567-.7775-2.38297-2.2605-2.38297h-9.14476c-1.484759 0-2.26054.7873-2.26054 2.38297v6.9166c0 1.601.775781 2.3963 2.26054 2.3963zm-.47597-10.87537h1.8287l.00175-3.29375c0-2.28516 1.46681-3.53926 3.21388-3.53926 1.74356 0 3.2316 1.2541 3.2316 3.53926l-.0035 3.29375h1.8225l.0017-3.1123c0-3.60332-2.38473-5.46953-5.0523-5.46953-2.65957 0-5.04258 1.86621-5.04258 5.46953z"/></svg>