<svg height="18.7605" width="20.641" xmlns="http://www.w3.org/2000/svg"><path d="m0 0h20.641v18.7605h-20.641z" opacity="0"/><path d="m2.77324 18.741h15.09626c1.7041 0 2.7715-1.2244 2.7715-2.759 0-.473-.135-.9656-.3879-1.4111l-7.5588-13.17852c-.5306-.927342-1.4367-1.39238-2.372-1.39238-.93715 0-1.85648.468554-2.37562 1.39238l-7.55879 13.18032c-.267187.4517-.38789.9363-.38789 1.4093 0 1.5346 1.06738 2.759 2.77324 2.759zm7.55876-6.6887c-.57282 0-.89821-.3263-.91676-.9054l-.1375-4.91879c-.01856-.59667.41328-1.01523 1.04456-1.01523.6152 0 1.0711.42656 1.0525 1.02324l-.1535 4.90728c-.0186.5906-.3422.9089-.8893.9089zm0 3.3647c-.65446 0-1.19919-.4793-1.19919-1.1152 0-.6422.53672-1.1215 1.19919-1.1215.6563 0 1.1877.473 1.1877 1.1215 0 .6439-.5412 1.1152-1.1877 1.1152z"/></svg>