<svg height="20.1812" width="20.1767" xmlns="http://www.w3.org/2000/svg"><path d="m0 0h20.1767v20.1812h-20.1767z" opacity="0"/><path d="m10.0875 20.175c5.5266 0 10.0892-4.569 10.0892-10.0875 0-5.52656-4.5707-10.0875-10.0972-10.0875-5.51681 0-10.0795 4.56094-10.0795 10.0875 0 5.5185 4.5707 10.0875 10.0875 10.0875zm0-1.9871c-4.49513 0-8.0924-3.6053-8.0924-8.1004 0-4.49513 3.58927-8.1004 8.0844-8.1004 4.4951 0 8.1102 3.60527 8.1102 8.1004 0 4.4951-3.6071 8.1004-8.1022 8.1004zm-.008-3.2957c2.0498 0 3.4205-1.361 3.4205-2.0108 0-.2378-.2299-.3488-.4455-.2494-.7199.3801-1.5572.8178-2.975.8178-1.41603 0-2.25861-.4422-2.96525-.8178-.22363-.1011-.45527.0116-.45527.2494 0 .6498 1.3707 2.0108 3.42052 2.0108zm-2.87833-5.68615c.61172 0 1.15332-.55137 1.15332-1.32383 0-.78223-.5336-1.33359-1.15332-1.33359-.60996 0-1.14004.55136-1.14004 1.33359 0 .77246.53008 1.32383 1.14004 1.32383zm5.76293 0c.6099 0 1.1533-.55137 1.1533-1.32383 0-.78223-.5354-1.33359-1.1533-1.33359-.6135 0-1.1418.55136-1.1418 1.33359 0 .77246.5283 1.32383 1.1418 1.32383z"/></svg>