<svg height="21.2015" width="21.2096" xmlns="http://www.w3.org/2000/svg"><path d="m0 0h21.2096v21.2015h-21.2096z" opacity="0"/><path d="m9.61406 21.1918h1.98144c.8064 0 1.4371-.5012 1.6234-1.2731l.3971-1.7277.2598-.0898 1.5074.9238c.6805.425 1.4779.3185 2.0502-.2572l1.3724-1.361c.5758-.5828.6788-1.3847.2538-2.0537l-.9399-1.4959.0961-.242 1.7242-.4086c.7639-.1898 1.2696-.825 1.2696-1.6234v-1.92657c0-.79667-.4977-1.43534-1.2696-1.62343l-1.7082-.4166-.1041-.25801.9399-1.4959c.4267-.66895.322-1.46289-.2537-2.05371l-1.3725-1.36894c-.5643-.56777-1.3617-.67774-2.0422-.25723l-1.5074.92383-.2758-.10586-.3971-1.72774c-.1863-.773628-.817-1.27304-1.6234-1.27304h-1.98144c-.80645 0-1.43711.502928-1.62344 1.27304l-.40508 1.72774-.27578.10586-1.49942-.92383c-.68046-.41699-1.48593-.31054-2.05019.25723l-1.36445 1.36894c-.57578.59082-.68847 1.38476-.25371 2.05371l.93184 1.4959-.0961.25801-1.7082.4166c-.775391.18984-1.26953.82676-1.26953 1.62343v1.92657c0 .7984.505663 1.4353 1.26953 1.6234l1.72422.4086.08809.242-.93184 1.4959c-.43477.669-.32207 1.4709.25371 2.0537l1.36445 1.361c.57227.5757 1.37773.6822 2.0582.2572l1.49942-.9238.25976.0898.40508 1.7277c.18633.7719.81699 1.2731 1.62344 1.2731zm.24238-1.7695c-.16426 0-.24864-.0702-.27618-.2211l-.5789-2.4061c-.61856-.1394-1.21211-.3896-1.68476-.692l-2.11485 1.2981c-.11543.0861-.23887.0683-.35254-.0453l-1.0416-1.0399c-.10743-.1074-.11192-.2228-.03731-.3525l1.30332-2.0989c-.26855-.4664-.52949-1.0529-.67871-1.6714l-2.40605-.5692c-.15098-.0275-.2211-.1119-.2211-.2762v-1.46383c0-.17226.06211-.24687.2211-.27617l2.39804-.57715c.15274-.64882.44043-1.25663.67071-1.67948l-1.29532-2.09883c-.08261-.1377-.07988-.25313.02754-.36856l1.05137-1.02383c.11368-.11367.2211-.12969.36055-.04531l2.09707 1.27402c.44277-.26426 1.08769-.52949 1.70879-.69375l.57265-2.40429c.02754-.15098.11192-.2211.27618-.2211h1.49666c.1643 0 .2469.07012.2682.2211l.5887 2.42031c.6336.15449 1.2013.41094 1.6847.68574l2.0998-1.27852c.1492-.08437.2469-.07011.3703.04532l1.0416 1.02383c.1155.11543.112.23086.0293.36855l-1.2918 2.09532c.2366.42109.518 1.03066.669 1.67597l2.4078.58066c.151.0293.2211.10391.2211.27617v1.46383c0 .1643-.0799.2487-.2211.2762l-2.4158.5727c-.1492.6133-.4022 1.2068-.677 1.6679l1.2981 2.0954c.0763.1296.0799.2451-.0356.3525l-1.0336 1.0398c-.1252.1155-.2388.1297-.3623.0454l-2.106-1.2946c-.4815.3024-1.0407.5455-1.6785.692l-.5887 2.4061c-.0213.1509-.1039.2211-.2682.2211zm.74746-5.1135c2.0322 0 3.7031-1.6709 3.7031-3.7129 0-2.02423-1.6709-3.69337-3.7031-3.69337-2.03223 0-3.71289 1.66914-3.71289 3.69337 0 2.0357 1.67266 3.7129 3.71289 3.7129zm0-1.6754c-1.1125 0-2.02774-.9152-2.02774-2.0375 0-1.1045.91699-2.01798 2.02774-2.01798 1.0947 0 2.0082.91699 2.0082 2.01798 0 1.1143-.9135 2.0375-2.0082 2.0375z"/></svg>
