<svg height="20.7574" width="21.1107" xmlns="http://www.w3.org/2000/svg"><path d="m0 0h21.1107v20.7574h-21.1107z" opacity="0"/><path d="m9.48066 20.7459h1.78804c.5782 0 1.0108-.3485 1.134-.9115l.492-2.0764c.3369-.1129.6641-.2436.9494-.3805l1.8198 1.1137c.4779.2988 1.0355.2492 1.4363-.148l1.2545-1.2465c.4008-.4008.4549-.9895.1365-1.4656l-1.1102-1.8002c.145-.2997.2739-.609.369-.9202l2.0959-.5c.5631-.1215.9035-.5558.9035-1.1339v-1.75532c0-.56836-.3404-1.00097-.9035-1.12597l-2.0746-.49825c-.1129-.35117-.2498-.67031-.3725-.93789l1.1137-1.83301c.3103-.48145.2705-1.04082-.1418-1.43808l-1.2758-1.25801c-.407-.3707-.9088-.43808-1.3947-.16758l-1.8561 1.14649c-.2773-.14668-.5965-.27559-.9476-.39024l-.4938-2.105663c-.1232-.563084-.5558-.913277-1.134-.913277h-1.78804c-.57813 0-1.01074.350193-1.14023.915034l-.49375 2.084376c-.33692.11289-.66583.24356-.95919.39825l-1.83828-1.13497c-.48769-.2705-.99394-.21289-1.40449.1711l-1.26601 1.25449c-.4123.39726-.4584.95663-.14004 1.43808l1.10391 1.83301c-.11465.26758-.25157.58672-.3627.93789l-2.074611.49825c-.564841.125-.905269.55761-.905269 1.12597v1.75532c0 .5781.340428 1.0124.905269 1.1339l2.094141.5c.09688.3112.22403.6205.36094.9202l-1.10215 1.8002c-.32636.4761-.2625 1.0648.13828 1.4656l1.24649 1.2465c.39902.3972.9664.4468 1.44433.148l1.80996-1.1137c.29512.1369.6125.2676.94942.3805l.49375 2.0764c.12949.563.5621.9115 1.14023.9115zm.89494-6.9529c-1.87873 0-3.41741-1.5485-3.41741-3.4272 0-1.86893 1.53868-3.40761 3.41741-3.40761 1.8769 0 3.4156 1.53868 3.4156 3.40761 0 1.8787-1.5387 3.4272-3.4156 3.4272z"/></svg>