<svg height="19.088" width="18.9681" xmlns="http://www.w3.org/2000/svg"><path d="m0 0h18.9681v19.088h-18.9681z" opacity="0"/><path d="m6.96083 16.8288c3.09787 3.0898 7.02327 2.8523 9.82087.0644 2.1182-2.1262 2.6192-4.3533 1.8391-7.02108-.4242-1.71523-1.4045-3.61678-2.3022-5.30624-.4443-.85137-.9861-1.9582-1.3287-2.33495-.3834-.43438-.9467-.4623-1.3847-.07168-.4975.4377-.5131 1.01074-.1916 1.94609l1.1004 3.02852c.1181.29492.1003.46914-.0098.57754-.1227.12441-.2942.1457-.5305-.08262l-7.28279-7.300583c-.44532-.437303-1.15254-.437303-1.58809-.001757-.44355.443553-.44355 1.14453.00176 1.58808l5.29882 5.30058c-.2398.11192-.48945.25762-.7373.4211l-6.12363-6.12187c-.4373-.44531-1.14277-.44531-1.58632 0-.43731.44355-.43731 1.14101 0 1.58632l6.0455 6.0455c-.18125.22032-.35801.45665-.52324.69297l-5.54922-5.55722c-.44355-.44355-1.146285-.44531-1.589838-.00175-.4337878.44355-.4320301 1.14452.001758 1.58808l6.02949 6.02147c-.11993.3092-.19629.6184-.26465.9115l-4.19297-4.19293c-.43554-.44356-1.142768-.44531-1.586321-.00176-.435545.44355-.435545 1.14453 0 1.58979z"/></svg>