<svg height="20.1812" width="20.1767" xmlns="http://www.w3.org/2000/svg"><path d="m0 0h20.1767v20.1812h-20.1767z" opacity="0"/><path d="m10.0875 20.175c5.5266 0 10.0892-4.569 10.0892-10.0875 0-5.52656-4.5707-10.0875-10.0972-10.0875-5.51681 0-10.0795 4.56094-10.0795 10.0875 0 5.5185 4.5707 10.0875 10.0875 10.0875zm0-1.9871c-4.49513 0-8.0924-3.6053-8.0924-8.1004 0-4.49513 3.58927-8.1004 8.0844-8.1004 4.4951 0 8.1102 3.60527 8.1102 8.1004 0 4.4951-3.6071 8.1004-8.1022 8.1004zm-1.70723-2.7283h3.93063c.4321 0 .7709-.3141.7709-.7514 0-.4125-.3388-.7398-.7709-.7398h-1.0879v-4.61392c0-.57656-.2882-.958-.832-.958h-1.83944c-.43379 0-.7709.3291-.7709.7416 0 .4373.33711.75136.7709.75136h.98691v4.07896h-1.1582c-.43203 0-.7709.3273-.7709.7398 0 .4373.33887.7514.7709.7514zm1.64573-8.57348c.7375 0 1.3187-.59101 1.3187-1.32324 0-.74101-.5812-1.32851-1.3187-1.32851-.72425 0-1.31702.5875-1.31702 1.32851 0 .73223.59277 1.32324 1.31702 1.32324z"/></svg>