<svg height="20.1812" width="20.5381" xmlns="http://www.w3.org/2000/svg"><path d="m0 0h20.5381v20.1812h-20.5381z" opacity="0"/><path d="m20.1767 10.0875c0 5.5185-4.5626 10.0875-10.0892 10.0875-5.5168 0-10.0875-4.569-10.0875-10.0875 0-5.52656 4.56269-10.0875 10.0795-10.0875 5.5265 0 10.0972 4.56094 10.0972 10.0875zm-11.70209-1.77501c-.45762 0-.81328.35391-.81328.78848 0 .46738.35566.79824.81328.79824h1.025v4.22419h-1.20157c-.4621 0-.81953.3539-.81953.7868 0 .4691.35743.8.81953.8h4.11116c.4638 0 .8195-.3309.8195-.8 0-.4329-.3557-.7868-.8195-.7868h-1.1242v-4.79099c0-.61191-.3016-1.01992-.8825-1.01992zm.15918-2.96543c0 .77559.62285 1.4002 1.39221 1.4002.7693 0 1.3841-.62461 1.3841-1.4002 0-.78613-.6148-1.4037-1.3841-1.4037-.76936 0-1.39221.61757-1.39221 1.4037z"/></svg>