<svg height="21.3859" width="13.2502" xmlns="http://www.w3.org/2000/svg"><path d="m0 0h13.2502v21.3859h-13.2502z" opacity="0"/><path d="m3.13729 19.3916c-.78086 0-1.22402-.4201-1.22402-1.1645v-15.09489c0-.74433.44316-1.16445 1.22402-1.16445h6.98531c.7711 0 1.2143.42363 1.2143 1.16621v15.09143c0 .7426-.4432 1.1662-1.2143 1.1662z" fill="none"/><path d="m2.80917 21.3593h7.67403c1.6586 0 2.767-1.0789 2.767-2.6937v-15.97186c0-1.61659-1.1084-2.69374-2.767-2.69374h-7.67403c-1.6832 0-2.80917 1.07715-2.80917 2.69199v15.97541c0 1.613 1.12597 2.6919 2.80917 2.6919zm.32812-1.9677c-.78086 0-1.22402-.4201-1.22402-1.1645v-15.09489c0-.74433.44316-1.16445 1.22402-1.16445h6.98531c.7711 0 1.2143.42363 1.2143 1.16621v15.09143c0 .7426-.4432 1.1662-1.2143 1.1662zm1.38809-.7604h4.21542c.28477 0 .48614-.1978.48614-.4941 0-.298-.20137-.4896-.48614-.4896h-4.21542c-.28477 0-.4959.1916-.4959.4896 0 .2963.21113.4941.4959.4941zm.87637-14.37614h2.45468c.41953 0 .74511-.32559.74511-.75313 0-.41953-.32734-.74687-.74511-.74687h-2.45468c-.42578 0-.75313.32734-.75313.74687 0 .42754.32559.75313.75313.75313z"/></svg>