<svg height="14.1293" width="10.7932" xmlns="http://www.w3.org/2000/svg"><path d="m0 0h10.7932v14.1293h-10.7932z" opacity="0"/><path d="m.955266 14.1248h6.240424c.56269 0 .95976-.3359.95976-.8951 0-.5397-.38378-.8756-.95175-.8756h-2.00294l2.27638-10.58165h2.00293c.56273 0 .95173-.33594.95173-.893355 0-.541402-.3775-.879095-.94372-.879095h-6.26621c-.5662 0-.9455.337693-.9455.879095 0 .557415.39082.893355.95351.893355h2.00294l-2.27637 10.58165h-2.009192c-.567964 0-.947258.3359-.947258.8756 0 .5592.390818.8951.955266.8951z"/></svg>