<svg height="24.4157" width="12.7572" xmlns="http://www.w3.org/2000/svg"><path d="m0 0h12.7572v24.4157h-12.7572z" opacity="0"/><path d="m6.38261.0932165c-3.55566 0-6.38261 2.8287035-6.38261 6.3648335 0 2.62149 1.5502 4.94905 3.98281 5.92425v9.4787c0 .2793.09219.5228.30313.733l1.68535 1.6494c.21699.2064.6246.2535.88241-.0043l3.0834-3.0834c.2701-.2781.2586-.6703-.00352-.9422l-1.78672-1.7644 2.49784-2.4916c.2524-.2621.2541-.6561-.016-.9342l-2.42637-2.4424c2.92797-1.2398 4.55487-3.4664 4.55487-6.12285 0-3.51835-2.84647-6.3648335-6.37459-6.3648335zm0 5.7718735c-.90644 0-1.63262-.73242-1.63262-1.63262 0-.9082.71641-1.63086 1.63262-1.63086.89844 0 1.63262.72442 1.63262 1.63086 0 .9002-.73418 1.63262-1.63262 1.63262z"/></svg>