<svg height="20.1812" width="20.5381" xmlns="http://www.w3.org/2000/svg"><path d="m0 0h20.5381v20.1812h-20.5381z" opacity="0"/><path d="m10.0875 20.175c5.5266 0 10.0892-4.569 10.0892-10.0875 0-5.52656-4.5707-10.0875-10.0972-10.0875-5.51681 0-10.0795 4.56094-10.0795 10.0875 0 5.5185 4.5707 10.0875 10.0875 10.0875zm0-1.9871c-4.49513 0-8.0924-3.6053-8.0924-8.1004 0-4.49513 3.58927-8.1004 8.0844-8.1004 4.4951 0 8.1102 3.60527 8.1102 8.1004 0 4.4951-3.6071 8.1004-8.1022 8.1004z"/><path d="m4.97714 8.22695h10.23846c.4842 0 .8283-.30508.8283-.7707 0-.45762-.3441-.7627-.8283-.7627h-10.23846c-.49219 0-.82832.30508-.82832.7627 0 .46562.33613.7707.82832.7707zm1.35215 3.22365h7.53421c.4806 0 .8185-.3051.8185-.7707 0-.4559-.3379-.76271-.8185-.76271h-7.53421c-.48867 0-.82656.30681-.82656.76271 0 .4656.33789.7707.82656.7707zm1.40195 3.2316h4.72226c.4807 0 .8266-.3131.8266-.7707 0-.4558-.3459-.7627-.8266-.7627h-4.72226c-.48066 0-.81855.3069-.81855.7627 0 .4576.33789.7707.81855.7707z"/></svg>