<svg height="21.1788" width="21.36" xmlns="http://www.w3.org/2000/svg"><path d="m0 0h21.36v21.1788h-21.36z" opacity="0"/><path d="m10.929 6.39683-1.48336 1.49589c1.17126.10918 2.00056.483 2.59496 1.07734 1.6615 1.65974 1.6552 4.00074.0133 5.64274l-3.24614 3.2364c-1.65176 1.65-3.975 1.6562-5.63301.0045-1.66153-1.6678-1.65528-3.9911-.00528-5.6428l1.67677-1.675c-.31211-.70491-.41386-1.57795-.24141-2.33048l-2.80605 2.79098c-2.395508 2.3948-2.404493 5.7994.00976 8.2137 2.42402 2.4258 5.82344 2.4098 8.21366.0195l3.3961-3.4023c2.3982-2.3983 2.4125-5.7994-.0115-8.21368-.5713-.57304-1.3438-1.00898-2.4778-1.21679zm-.8593 8.22967 1.4834-1.4959c-1.1713-.1012-2.00062-.4812-2.59495-1.0756-1.65977-1.6615-1.65528-4.00076-.01153-5.64275l3.23808-3.23633c1.658-1.65176 3.9813-1.65801 5.641.00176 1.6598 1.65976 1.6455 3.99278.0035 5.63477l-1.675 1.67505c.3104.7146.4041 1.5779.2414 2.3322l2.8061-2.7928c2.3937-2.39473 2.4045-5.7914-.0098-8.21367-2.4257-2.42402-5.8252-2.408004-8.2234-.00976l-3.38632 3.39257c-2.39824 2.39824-2.4125 5.79946.00976 8.21366.57305.5731 1.34376 1.009 2.47776 1.2168z"/></svg>