<svg height="14.7547" width="20.4978" xmlns="http://www.w3.org/2000/svg"><path d="m0 0h20.4978v14.7547h-20.4978z" opacity="0"/><path d="m5.94061 14.3037h13.26599c.5168 0 .9299-.4033.9299-.9219 0-.5248-.4113-.9299-.9299-.9299h-13.26599c-.5248 0-.92988.4034-.92988.9299 0 .5168.40332.9219.92988.9219z"/><path d="m1.37285 14.7547c.76093 0 1.3746-.62 1.3746-1.3729 0-.7609-.61367-1.3728-1.3746-1.3728-.759181 0-1.37285.6119-1.37285 1.3728 0 .7529.613669 1.3729 1.37285 1.3729z"/><path d="m5.94061 8.31209h13.26599c.5168 0 .9299-.41132.9299-.92987 0-.5168-.4113-.92187-.9299-.92187h-13.26599c-.5248 0-.92988.40332-.92988.92187 0 .51679.40332.92987.92988.92987z"/><path d="m1.37285 8.75682c.76093 0 1.3746-.61367 1.3746-1.3746 0-.76094-.61367-1.37285-1.3746-1.37285-.759181 0-1.37285.61191-1.37285 1.37285 0 .76093.613669 1.3746 1.37285 1.3746z"/><path d="m5.94061 2.31249h13.26599c.5168 0 .9299-.40332.9299-.92187 0-.523045-.4113-.929878-.9299-.929878h-13.26599c-.5248 0-.92988.403318-.92988.929878 0 .51679.40332.92187.92988.92187z"/><path d="m1.37285 2.75721c.76093 0 1.3746-.61366 1.3746-1.36659 0-.759177-.61367-1.3728465-1.3746-1.3728465-.759181 0-1.37285.6136695-1.37285 1.3728465 0 .75293.613669 1.36659 1.37285 1.36659z"/></svg>