<svg height="17.023" width="20.4978" xmlns="http://www.w3.org/2000/svg"><path d="m0 0h20.4978v17.023h-20.4978z" opacity="0"/><path d="m6.32577 15.4379h12.88083c.5168 0 .9299-.4033.9299-.9219 0-.5248-.4113-.9299-.9299-.9299h-12.88083c-.5168 0-.92988.4033-.92988.9299 0 .5168.41133.9219.92988.9219z"/><path d="m1.75996 16.7135c1.20781 0 1.91074-.5282 1.91074-1.3696 0-.5494-.38164-.924-1.06777-.9843v-.0311c.48828-.0896.89296-.4305.89296-1.0074 0-.7686-.75429-1.1822-1.74394-1.1822-.777537 0-1.639255.3578-1.639255 1.0304 0 .2858.204101.4899.527929.4899.220117 0 .323046-.0879.465036-.2326.2334-.2407.41094-.3153.64629-.3153.29219 0 .51504.1377.51504.4237 0 .2646-.22559.4013-.61367.4013h-.11621c-.27871 0-.45977.1455-.45977.4428 0 .2795.17129.441.45977.441h.13222c.42188 0 .64922.143.65098.4352.00176.2548-.23887.4414-.56035.4414-.34356 0-.59121-.2024-.776759-.3756-.118945-.1022-.221874-.1838-.414452-.1838-.331835 0-.568749.1961-.568749.5182 0 .6843.935546 1.058 1.75996 1.058z"/><path d="m6.32577 9.44628h12.88083c.5168 0 .9299-.41133.9299-.92988 0-.51679-.4113-.92187-.9299-.92187h-12.88083c-.5168 0-.92988.40332-.92988.92187 0 .5168.41133.92988.92988.92988z"/><path d="m.584764 10.5521h2.558986c.28476 0 .5039-.1925.5039-.4888 0-.30706-.21113-.50315-.5039-.50315h-1.37539v-.03105l.79375-.63399c.66582-.5416.94882-.8541.94882-1.45136 0-.80411-.6789-1.34024-1.7705-1.34024-.962111 0-1.6517586.49004-1.6517586 1.12559 0 .32656.2138666.50312.5634756.50312.229883 0 .383393-.07187.535933-.29648.14551-.22383.3125-.342.57364-.342.27265 0 .47246.17676.47246.44493 0 .2291-.1207.42539-.63028.82929l-1.291596 1.05996c-.204101.16329-.2874995.34786-.2874995.57848 0 .3186.2218745.5457.5599595.5457z"/><path d="m6.32577 3.44667h12.88083c.5168 0 .9299-.40331.9299-.92187 0-.52304-.4113-.92987-.9299-.92987h-12.88083c-.5168 0-.92988.40332-.92988.92987 0 .5168.41133.92187.92988.92187z"/><path d="m2.18515 4.58261c.39219 0 .66992-.22363.66992-.69648v-3.177147c0-.433007-.31054-.708983-.76308-.708983-.35586 0-.58301.120703-.84472.295507l-.693364.475c-.205859.140235-.311523.272463-.311523.489843 0 .27148.202343.45781.439257.4543.128711-.00176.19082-.01954.36387-.13672l.43515-.29395h.02305v2.60215c0 .47285.26973.69648.68144.69648z"/></svg>