<svg height="19.957" width="14.0271" xmlns="http://www.w3.org/2000/svg"><path d="m0 0h14.0271v19.957h-14.0271z" opacity="0"/><path d="m2.26054 19.4492h9.14476c1.483 0 2.2605-.7953 2.2605-2.3963v-6.9166c0-1.58767-.7775-2.38298-2.2605-2.38298h-9.14476c-1.484759 0-2.26054.79531-2.26054 2.38298v6.9166c0 1.601.775781 2.3963 2.26054 2.3963zm.27734-1.7506c-.40586 0-.6377-.2478-.6377-.7088v-6.7869c0-.46267.23184-.699.6377-.699h8.59182c.4139 0 .6342.23633.6342.699v6.7869c0 .461-.2203.7088-.6342.7088zm-.75156-9.12477h1.8287v-3.28575c0-2.29317 1.46681-3.53926 3.21388-3.53926 1.74356 0 3.2316 1.24609 3.2316 3.53926v3.28575h1.8207v-3.11231c0-3.60332-2.38473-5.46152-5.0523-5.46152-2.65957 0-5.04258 1.8582-5.04258 5.46152z"/></svg>