<svg height="20.5746" width="18.7737" xmlns="http://www.w3.org/2000/svg"><path d="m0 0h18.7737v20.5746h-18.7737z" opacity="0"/><path d="m9.13412 2.05763c1.74358 0 3.23338 1.24609 3.23168 3.53926l-.0035 2.46524h-3.32701l6.93571 6.91797v-4.535c0-1.40738-.6168-2.19469-1.7863-2.34742l.0018-2.32735c.0035-3.60332-2.3848-5.461519-5.05238-5.461519-2.03984 0-3.89375 1.100979-4.63828 3.205859l1.46796 1.47421c.22754-1.89043 1.5752-2.93125 3.17032-2.93125zm-4.56835 17.70037h9.14473c.466 0 .8619-.1021 1.1556-.2806l-11.24134-11.23167h-.07208c-.79902.28476-1.24746 1.03574-1.24746 2.19937v6.9166c0 1.601.77578 2.3963 2.26055 2.3963zm12.87963.5897c.3098.3017.8059.3035 1.0996 0 .3-.3018.3098-.7961 0-1.0979l-17.20931-17.20759c-.30351-.30351-.807614-.30351-1.109372 0-.3017574.30176-.3017574.80762 0 1.09961z"/></svg>