<svg height="19.973" width="13.6658" xmlns="http://www.w3.org/2000/svg"><path d="m0 0h13.6658v19.973h-13.6658z" opacity="0"/><path d="m2.26054 19.4572h9.14476c1.483 0 2.2605-.7953 2.2605-2.3963v-6.9166c0-1.59567-.7775-2.38297-2.2605-2.38297h-9.14476c-1.484759 0-2.26054.7873-2.26054 2.38297v6.9166c0 1.601.775781 2.3963 2.26054 2.3963zm-.47597-10.87537h1.8287l.00175-3.29375c0-2.28516 1.46681-3.53926 3.21388-3.53926 1.74356 0 3.2316 1.2541 3.2316 3.53926l-.0035 3.29375h1.8225l.0017-3.1123c0-3.60332-2.38473-5.46953-5.0523-5.46953-2.65957 0-5.04258 1.86621-5.04258 5.46953z"/></svg>