<svg height="19.4609" width="19.2807" xmlns="http://www.w3.org/2000/svg"><path d="m0 0h19.2807v19.4609h-19.2807z" opacity="0"/><path d="m0 7.94765c0 4.38655 3.56465 7.94945 7.94941 7.94945 1.63066 0 3.12719-.5012 4.37479-1.3471l4.4866 4.4945c.2808.2809.6529.4147 1.0445.4147.831 0 1.4254-.6281 1.4254-1.4494 0-.3864-.1418-.7469-.4102-1.0153l-4.452-4.4777c.9321-1.2822 1.4803-2.8586 1.4803-4.56915 0-4.38476-3.5646-7.94765-7.94939-7.94765-4.38476 0-7.94941 3.56289-7.94941 7.94765zm2.07069 0c0-3.24356 2.63516-5.87696 5.87872-5.87696 3.24359 0 5.87699 2.6334 5.87699 5.87696 0 3.24535-2.6334 5.87875-5.87699 5.87875-3.24356 0-5.87872-2.6334-5.87872-5.87875z"/></svg>