<svg height="18.2316" width="23.1293" xmlns="http://www.w3.org/2000/svg"><path d="m0 0h23.1293v18.2316h-23.1293z" opacity="0"/><path d="m4.82675 6.25721c-.40644 0-.70723-.33535-.70723-.73027 0-.40195.29903-.71601.70723-.71601h5.97365c.4019 0 .717.3123.717.71601 0 .39316-.3168.73027-.717.73027zm0 2.59336c-.40644 0-.70723-.32207-.70723-.7205 0-.39844.29903-.72403.70723-.72403h4.33693c.40019 0 .71699.32383.71699.72403 0 .39843-.31856.7205-.71699.7205zm11.83145.22325c-1.3014 0-2.3613-1.05371-2.3613-2.36309 0-1.30762 1.0599-2.36133 2.3613-2.36133 1.2979 0 2.3516 1.05371 2.3516 2.36133 0 1.30938-1.0537 2.36309-2.3516 2.36309zm-13.45469 9.15778h16.72229c2.1158 0 3.2035-1.0797 3.2035-3.1634v-11.89321c0-2.08554-1.0877-3.17147452-3.2035-3.17147452h-16.72229c-2.10781 0-3.20351 1.08593452-3.20351 3.17147452v11.89321c0 2.0837 1.0957 3.1634 3.20351 3.1634z"/></svg>