<svg height="21.166" width="22.5804" xmlns="http://www.w3.org/2000/svg"><path d="m0 0h22.5804v21.166h-22.5804z" opacity="0"/><path d="m4.18496 14.4359h1.98535v-9.48707h-1.98535c-2.71699 0-4.18496 1.4289-4.18496 4.04823v1.39234c0 2.6114 1.46797 4.0465 4.18496 4.0465zm3.3918.0098c2.80584.3168 6.27514 1.1607 9.06794 2.5371-.0035-.1135-.0053-.2367-.0053-.3502v-13.87049c0-.12598.0018-.23418.0036-.3584-2.7694 1.36856-6.4975 2.26641-9.06624 2.54512zm12.54294 4.8654c1.2336 0 2.0994-.8738 2.0994-2.0949v-15.11327c0-1.229104-.8658-2.10293-2.0994-2.10293-1.2211 0-2.0931.873826-2.0931 2.10293v15.11327c0 1.2211.872 2.0949 2.0931 2.0949zm-11.96014 1.8469c1.26016 0 2.19984-.934 1.85394-2.4695l-.55394-2.5198c-.87578-.1709-2.10233-.2798-4.60643-.3377-.17051 0-.44336-.016-.72598-.0177l1.70742 3.6068c.51992 1.0943 1.13593 1.7379 2.32499 1.7379z"/></svg>