<svg height="20.9441" width="22.6107" xmlns="http://www.w3.org/2000/svg"><path d="m0 0h22.6107v20.9441h-22.6107z" opacity="0"/><path d="m4.42636 20.9441c1.35351 0 4.09277-1.314 6.15254-2.7881 6.891.1276 12.0318-3.8472 12.0318-9.06109 0-5.03515-5.0256-9.09491-11.3045-9.09491-6.28062 0-11.3062 4.05976-11.3062 9.09491 0 3.20309 1.99981 6.06949 5.05938 7.55509-.42012.7916-1.17012 1.8894-1.59727 2.4516-.61601.8171-.18926 1.8425.96425 1.8425zm1.16601-1.9761c-.11855.0451-.16367-.0223-.08496-.1276.49942-.6176 1.24903-1.591 1.60567-2.2564.29277-.543.19101-1.0133-.4375-1.3115-2.98555-1.3977-4.71348-3.6309-4.71348-6.17759 0-3.93535 4.14551-7.14082 9.3441-7.14082 5.2049 0 9.3504 3.20547 9.3504 7.14082 0 3.92739-4.1455 7.13279-9.3504 7.13279-.1812 0-.4523-.008-.7972-.016-.4172 0-.73147.1217-1.12014.4305-1.17657.8691-2.9254 1.9732-3.79649 2.3258z"/></svg>