<svg height="22.6094" width="15.1955" xmlns="http://www.w3.org/2000/svg"><path d="m0 0h15.1955v22.6094h-15.1955z" opacity="0"/><path d="m0 10.4373c0 4.0162 2.67695 6.7738 6.52421 7.1373v2.0082h-3.58614c-.50507 0-.92675.4094-.92675.9162 0 .5016.42168.9064.92675.9064h8.95623c.5068 0 .9285-.4048.9285-.9064 0-.5068-.4217-.9162-.9285-.9162h-3.58436v-2.0082c3.85526-.3635 6.52416-3.1211 6.52416-7.1373v-1.93497c0-.50507-.4066-.89765-.9152-.89765-.5068 0-.925.39258-.925.89765v1.86937c0 3.3283-2.2453 5.516-5.57282 5.516-3.33555 0-5.58086-2.1877-5.58086-5.516v-1.86937c0-.50507-.41015-.89765-.926751-.89765-.50859 0-.913469.39258-.913469.89765zm7.42108 3.4264c1.975 0 3.41892-1.485 3.41892-3.6442v-6.57361c0-2.16542-1.44392-3.64589-3.41892-3.64589-1.98477 0-3.43398 1.47871-3.43398 3.64414v6.57536c0 2.1592 1.44921 3.6442 3.43398 3.6442z"/></svg>