<svg height="22.7484" width="15.1955" xmlns="http://www.w3.org/2000/svg"><path d="m0 0h15.1955v22.7484h-15.1955z" opacity="0"/><path d="m0 10.5068c0 4.0162 2.67695 6.7738 6.52421 7.1373v2.0082h-3.58614c-.50507 0-.92675.4094-.92675.9162 0 .5016.42168.9065.92675.9065h8.95623c.5068 0 .9285-.4049.9285-.9065 0-.5068-.4217-.9162-.9285-.9162h-3.58436v-2.0082c3.85526-.3635 6.52416-3.1211 6.52416-7.1373v-1.93493c0-.50508-.4066-.89765-.9152-.89765-.5068 0-.925.39257-.925.89765v1.86933c0 3.3283-2.2453 5.516-5.57282 5.516-3.33555 0-5.58086-2.1877-5.58086-5.516v-1.86933c0-.50508-.41015-.89765-.926751-.89765-.50859 0-.913469.39257-.913469.89765zm3.68534-.4289c0 2.3463 1.53672 3.9934 3.73574 3.9934 2.18925 0 3.72772-1.6471 3.72772-3.9934v-6.08631c0-2.34901-1.53847-3.99159-3.72772-3.99159-2.19902 0-3.73574 1.64258-3.73574 3.99159zm1.84725.0317v-6.14789c0-1.30293.73692-2.18848 1.88849-2.18848 1.15156 0 1.87872.88203 1.87872 2.18848v6.14789c0 1.3047-.72716 2.1867-1.87872 2.1867-1.15157 0-1.88849-.882-1.88849-2.1867z"/></svg>