<svg height="25.0828" width="23.1049" xmlns="http://www.w3.org/2000/svg"><path d="m0 0h23.1049v25.0828h-23.1049z" opacity="0"/><path d="m21.238 2.23552.3049 1.13456c.2672 1.03946-.2211 1.9211-1.2953 2.20254l-9.2233 2.47209h9.9088c1.1106 0 1.8084.69961 1.8084 1.79062v9.29417c0 1.9632-1.023 2.9943-3.0281 2.9943h-15.76465c-1.99706 0-3.034368-1.023-3.034368-2.9943v-8.4036l-.762303-2.79272c-.502343-1.89317.245702-3.15762 2.156641-3.67773l15.22828-4.094343c1.9032-.508593 3.2137.188085 3.701 2.074413zm-13.85858 7.67714-2.38712.09614-1.40879 2.5836h3.00196l1.46485-2.67974zm3.62658 0-1.45685 2.67974h3.19595l1.4648-2.67974zm6.1596 0-1.4569 2.67974h2.9922l1.4649-2.67974zm-13.35181-4.20429-.70958 2.92422 2.91134-.78184.68203-2.93125zm5.74805-1.55157-.68555 2.92774 3.08751-.81563.6873-2.93399zm8.12676-2.18692-2.1795.59883-.6935 2.92422 2.8998-.77558.6775-2.90997c-.2291.04883-.4609.09766-.7043.1625z"/></svg>