<svg height="21.5692" width="18.9854" xmlns="http://www.w3.org/2000/svg"><path d="m0 0h18.9854v21.5692h-18.9854z" opacity="0"/><path d="m16.0551 11.3156-7.20407 7.2041c-1.83536 1.8452-4.30294 1.6719-5.87989.0754-1.58848-1.5769-1.75996-4.0267.07715-5.8718l9.85991-9.85199c1.0791-1.07735 2.6821-1.26875 3.7334-.22364 1.0469 1.0629.8538 2.6543-.2173 3.73341l-9.67054 9.67582c-.43281.447-.95723.3164-1.25586.0195-.29512-.3049-.41778-.8133.01328-1.2621l6.75102-6.73323c.3386-.34844.3564-.84843.0275-1.17558-.3272-.31738-.8289-.30137-1.1676.0373l-6.77224 6.77231c-1.04531 1.0453-1.00098 2.6531-.07461 3.5777 1.008 1.008 2.53066.9867 3.58398-.0666l9.71657-9.71661c1.886-1.88594 1.8184-4.3709.1615-6.02773-1.6177-1.616013-4.1435-1.724412-6.0294.15977l-9.9141 9.92737c-2.470112 2.4701-2.295111 6.0193-.05234 8.2638 2.24629 2.2348 5.7955 2.4115 8.26564-.0506l7.2564-7.2564c.3272-.3219.3237-.9221-.0133-1.2297-.3218-.3449-.8564-.3076-1.1951.0195z"/></svg>