<svg height="21.6391" width="20.6734" xmlns="http://www.w3.org/2000/svg"><path d="m0 0h20.6734v21.6391h-20.6734z" opacity="0"/><path d="m12.332 21.6391c.7506 0 1.275-.6125 1.6364-1.5518l6.4421-16.83906c.1705-.43516.2629-.82676.2629-1.15352 0-.69453-.4345-1.127338-1.1291-1.127338-.3285 0-.7201.092378-1.1535.261128l-16.91111 6.47598c-.843167.31953-1.47969.84394-1.47969 1.60254 0 .93187.695898 1.27677 1.65449 1.56877l5.06427 1.5453c.68124.2129 1.08027.1986 1.55644-.2377l10.8676-10.07657c.1357-.12422.298-.10644.4009-.00976.1012.10293.1145.26523-.0115.40097l-10.04275 10.88906c-.41953.4478-.4541.8625-.25273 1.5519l1.50878 4.97c.3.9986.6467 1.7301 1.5865 1.7301z"/></svg>