<svg height="18.5664" width="27.373" xmlns="http://www.w3.org/2000/svg"><path d="m0 0h27.373v18.5664h-27.373z" opacity="0"/><path d="m12.6963 18.5646h12.176c1.6888 0 2.5007-.5287 2.5007-1.675 0-2.6728-3.3431-6.2615-8.5896-6.2615-5.2367 0-8.5799 3.5887-8.5799 6.2615 0 1.1463.8119 1.675 2.4928 1.675zm-.3246-1.6873c-.2311 0-.3164-.0701-.3164-.2523 0-1.4961 2.4189-4.3096 6.7281-4.3096 4.3189 0 6.7379 2.8135 6.7379 4.3096 0 .1822-.0934.2523-.3244.2523zm6.4197-7.38805c2.3611 0 4.2732-2.08613 4.2732-4.64082 0-2.52109-1.9111-4.522649-4.2732-4.522649-2.3523 0-4.2812 2.033589-4.2715 4.540429.0098 2.54492 1.9121 4.62304 4.2715 4.62304zm0-1.68729c-1.3502 0-2.5023-1.28985-2.5023-2.93927-.0098-1.6043 1.1334-2.84961 2.5023-2.84961 1.3725 0 2.5041 1.2293 2.5041 2.83535 0 1.64591-1.1424 2.95353-2.5041 2.95353zm-16.69824 10.76444h7.59043c-.53027-.3094-.88535-1.0078-.81171-1.6562h-6.87775c-.19102 0-.2666-.0782-.2666-.2426 0-2.2514 2.63711-4.401 5.74258-4.401 1.09415 0 2.19689.2736 3.05099.7512.3186-.468.7256-.8713 1.2547-1.218-1.2369-.7703-2.77873-1.1859-4.30569-1.1859-4.12519 0-7.47011 2.9529-7.47011 6.2031 0 1.1578.699217 1.7494 2.09316 1.7494zm5.38496-8.97793c2.04863 0 3.71838-1.82422 3.71838-4.07265 0-2.19258-1.66252-3.97227-3.71838-3.97227-2.04336 0-3.72988 1.80547-3.72011 3.99004.00176 2.24219 1.67148 4.05488 3.72011 4.05488zm0-1.66249c-1.11856 0-2.05586-1.06524-2.05586-2.39239-.00352-1.28907.93281-2.32579 2.05586-2.32579 1.13731 0 2.06388 1.02071 2.06388 2.30802 0 1.34492-.94356 2.41016-2.06388 2.41016z"/></svg>
