<svg height="17.9793" width="16.5006" xmlns="http://www.w3.org/2000/svg"><path d="m0 0h16.5006v17.9793h-16.5006z" opacity="0"/><path d="m1.75429 17.9793h12.99371c1.0977 0 1.7526-.5199 1.7526-1.3832 0-2.5125-3.186-5.968-8.25431-5.968-5.0586 0-8.24629 3.4555-8.24629 5.968 0 .8633.656639 1.3832 1.75429 1.3832zm6.50001-9.08516c2.1285 0 3.9396-1.89258 3.9396-4.33926 0-2.40156-1.8164-4.229099-3.9396-4.229099-2.12325 0-3.94141 1.861329-3.93789 4.246869.00175 2.42891 1.80312 4.32149 3.93789 4.32149z"/></svg>