<svg height="20.1812" width="20.5381" xmlns="http://www.w3.org/2000/svg"><path d="m0 0h20.5381v20.1812h-20.5381z" opacity="0"/><path d="m10.0875 20.175c5.5266 0 10.0892-4.569 10.0892-10.0875 0-5.52656-4.5707-10.0875-10.0972-10.0875-5.51681 0-10.0795 4.56094-10.0795 10.0875 0 5.5185 4.5707 10.0875 10.0875 10.0875zm0-1.9871c-4.49513 0-8.0924-3.6053-8.0924-8.1004 0-4.49513 3.58927-8.1004 8.0844-8.1004 4.4951 0 8.1102 3.60527 8.1102 8.1004 0 4.4951-3.6071 8.1004-8.1022 8.1004zm6.5109-1.6578-.0345-.1619c-.6139-1.4338-3.0672-2.9147-6.4764-2.9147-3.39943 0-5.85451 1.4809-6.47462 2.9067l-.03457.1699c1.83691 1.6908 4.64532 2.622 6.50919 2.622 1.8736 0 4.658-.9232 6.5109-2.622zm-6.5109-4.6858c1.8953.016 3.3637-1.5961 3.3637-3.6904 0-1.9709-1.4799-3.61406-3.3637-3.61406-1.88204 0-3.37168 1.64316-3.36192 3.61406.00801 2.0943 1.47637 3.6744 3.36192 3.6904z"/></svg>