<svg height="19.1543" width="18.4359" xmlns="http://www.w3.org/2000/svg"><path d="m0 0h18.4359v19.1543h-18.4359z" opacity="0"/><path d="m5.06992 14.0523c2.88203 2.8856 6.37128 5.102 9.22148 5.102 1.2791 0 2.4019-.4447 3.3029-1.4389.5264-.5849.8416-1.2588.8416-1.9299 0-.5181-.1996-1.0168-.6885-1.3716l-3.005-2.1342c-.4731-.3266-.8627-.4828-1.2196-.4828-.4517 0-.8574.2591-1.3136.7056l-.7039.6977c-.1075.1074-.2477.1562-.3746.1562-.15 0-.3018-.0586-.4012-.1127-.6143-.3328-1.66701-1.2373-2.64435-2.2066-.96934-.9693-1.87383-2.02207-2.19863-2.63632-.0541-.10743-.1127-.25118-.1127-.39942 0-.12871.04082-.26093.14825-.36836l.70566-.71992c.43848-.45625.70566-.8539.70566-1.31367 0-.35683-.16426-.74648-.49883-1.21953l-2.11015-2.97305c-.35938-.496869-.86953-.710736-1.41972-.710736-.6586 0-1.32442.289453-1.90586.847856-.970119.91875-1.39883 2.05761-1.39883 3.31894 0 2.85019 2.18437 6.31541 5.06992 9.18941z"/></svg>