<svg height="21.7609" width="21.6289" xmlns="http://www.w3.org/2000/svg"><path d="m0 0h21.6289v21.7609h-21.6289z" opacity="0"/><path d="m6.16406 21.7609c.54355 0 .94765-.2662 1.62421-.8603l3.34273-2.9594h5.911c2.94 0 4.5869-1.6887 4.5869-4.5869v-7.57364c0-2.89824-1.6469-4.58691-4.5869-4.58691h-12.45685c-2.93828 0-4.58515 1.68066-4.58515 4.58691v7.57364c0 2.9062 1.6873 4.5869 4.52363 4.5869h.40196v2.4072c0 .8627.45292 1.4125 1.23847 1.4125zm.47421-2.1509v-2.7881c0-.5731-.2455-.794-.79394-.794h-1.20469c-1.8461 0-2.72637-.939-2.72637-2.7343v-7.46021c0-1.79531.88027-2.72637 2.72637-2.72637h12.34966c1.8381 0 2.7263.93106 2.7263 2.72637v7.46021c0 1.7953-.8882 2.7343-2.7263 2.7343h-5.9626c-.5925 0-.8748.0957-1.28804.5135zm1.83477-7.7706c2.27466 2.2747 5.14336 3.7042 6.84456 2.011.0621-.0701.1127-.1322.1713-.2006.4183-.4945.5558-1.1436-.0256-1.5795-.4651-.3328-.9426-.6719-1.7039-1.1969-.5815-.4119-.9438-.3054-1.378.1252l-.3791.3756c-.1154.1137-.3089.0959-.4341.0178-.3383-.2068-.9092-.6623-1.4491-1.2004-.52828-.52832-1.00856-1.12852-1.19235-1.44903-.06484-.1039-.11543-.27968.01153-.4084l.38359-.40312c.43242-.45547.5291-.79649.11543-1.37793l-1.18711-1.68164c-.39687-.56739-.98379-.47129-1.65137.01426-.04882.0373-.08789.07636-.12695.11543-1.70469 1.70468-.26367 4.57344 2.00117 6.83823z"/></svg>