<svg height="19.4668" width="19.4285" xmlns="http://www.w3.org/2000/svg"><path d="m0 0h19.4285v19.4668h-19.4285z" opacity="0"/><path d="m14.4435 19.4668c1.7143 0 2.8707-.4906 3.908-1.6338.0764-.0764.151-.1607.2194-.2389.5719-.6455.8576-1.3181.8576-1.9422 0-.7294-.3978-1.3908-1.2705-1.998l-2.9051-2.0184c-.9176-.6336-1.9693-.6878-2.7914.1297l-.7273.7291c-.2545.2563-.4903.2696-.7719.0696-.5291-.3514-1.53203-1.2299-2.21953-1.9157-.70196-.69391-1.40274-1.49509-1.79337-2.08923-.18671-.28964-.17695-.51562.07754-.77187l.7211-.72734c.82734-.82207.7748-1.88184.13945-2.78965l-2.05878-2.94726c-.58965-.842773-1.27735-1.2414056-2.0086-1.2494135-.62929-.0080079-1.28437.2681645-1.93164.8365245-.08437.074609-.1625.141209-.23183.202539-1.162501 1.06465-1.65664 2.20527-1.65664 3.97031 0 2.87909 1.66953 6.27579 4.91523 9.50389 3.22793 3.2086 6.59567 4.8801 9.52827 4.8801zm-.0043-1.6305c-2.4884.0418-5.59917-1.7422-8.2937-4.4111-2.71054-2.6867-4.55078-5.90313-4.50898-8.39161.01601-1.05137.39336-1.97031 1.13223-2.61153.07363-.06386.133-.11972.20664-.17207.27714-.23632.57207-.3625.84297-.3625.28144 0 .53711.1127.72617.40567l1.8418 2.75215c.22617.33437.23515.71308-.09571 1.03867l-.78906.78203c-.73359.72129-.67422 1.55918-.2 2.22226.52852.74141 1.51289 1.85803 2.34043 2.67053.86699.8679 2.07148 1.942 2.79101 2.4609.6648.476 1.5027.5354 2.2223-.2l.782-.7873c.3256-.3326.6963-.3201 1.0404-.1037l2.71 1.7996c.2982.1971.4057.4447.4057.7324 0 .2709-.1245.5659-.3625.8448-.0604.0736-.1083.133-.1721.2066-.6412.7389-1.5602 1.1082-2.6196 1.1242zm-2.5109-9.4201c.227 0 .4246-.08242.5904-.24824l3.9612-3.96564 1.3535-1.47695-.166 2.56602v1.40762c0 .44062.3422.77578.7898.79355.4557.01602.8299-.33515.8299-.78827v-5.51017c0-.637101-.3295-.974598-.9586-.974598h-5.5437c-.4629 0-.8141.375974-.7963.839648.016.44765.3511.78183.7998.78183h1.4377l2.5898-.15977-1.5035 1.35001-3.9611 3.96915c-.1774.1791-.2678.38828-.2678.62675 0 .44238.3662.78906.8449.78906z"/></svg>
