<svg height="18.2316" width="23.4906" xmlns="http://www.w3.org/2000/svg"><path d="m0 0h23.4906v18.2316h-23.4906z" opacity="0"/><path d="m23.1293 3.17499v11.89321c0 2.0837-1.0877 3.1634-3.2035 3.1634h-16.72229c-2.10781 0-3.20351-1.0797-3.20351-3.1634v-11.89321c0-2.08554 1.0957-3.17147452 3.20351-3.17147452h16.72229c2.1158 0 3.2035 1.08593452 3.2035 3.17147452zm-9.265 6.10548-4.62231 4.10543-1.85117-1.6656c-.42793-.3951-.91895-.5887-1.39219-.5887-.44375 0-.88789.1918-1.31582.5692l-2.76954 2.4203v.768c0 .9007.53652 1.4373 1.4293 1.4373h16.45213c.861 0 1.4213-.5366 1.4213-1.4231v-1.6621l-4.2689-3.95097c-.4502-.42265-1.0016-.62422-1.5317-.62422-.5513 0-1.0814.1918-1.5511.61446zm-8.69029-2.39981c0 1.34043 1.09453 2.43496 2.43321 2.43496 1.33066 0 2.42518-1.09453 2.42518-2.43496 0-1.3289-1.09452-2.4332-2.42518-2.4332-1.33868 0-2.43321 1.1043-2.43321 2.4332z"/></svg>