<svg height="18.2476" width="18.2281" xmlns="http://www.w3.org/2000/svg"><path d="m0 0h18.2281v18.2476h-18.2281z" opacity="0"/><path d="m3.20351 18.2476h11.82109c2.1158 0 3.2035-1.0876 3.2035-3.1714v-11.88519c0-2.08554-1.0877-3.1714788-3.2035-3.1714788h-11.82109c-2.10781 0-3.20351 1.0779288-3.20351 3.1714788v11.88519c0 2.0918 1.0957 3.1714 3.20351 3.1714zm1.16211-9.12065c0-.56582.39902-.9666.95957-.9666h2.85625v-2.85626c0-.56054.39278-.96757.95059-.96757.56406 0 .96657.40703.96657.96757v2.85626h2.8643c.5525 0 .9578.40078.9578.9666 0 .55781-.4053.94255-.9578.94255h-2.8643v2.8643c0 .5605-.40251.9578-.96657.9578-.55781 0-.95059-.4053-.95059-.9578v-2.8643h-2.85625c-.56055 0-.95957-.38474-.95957-.94255z"/></svg>