<svg height="20.1812" width="20.1767" xmlns="http://www.w3.org/2000/svg"><path d="m0 0h20.1767v20.1812h-20.1767z" opacity="0"/><path d="m10.0875 20.175c5.5266 0 10.0892-4.569 10.0892-10.0875 0-5.52656-4.5707-10.0875-10.0972-10.0875-5.51681 0-10.0795 4.56094-10.0795 10.0875 0 5.5185 4.5707 10.0875 10.0875 10.0875zm-.22442-8.0592c-.62304 0-.97402-.3015-.97402-.8799 0-.0338 0-.0738 0-.1076 0-.9258.53282-1.44256 1.25374-1.94862.8578-.59765 1.2812-.91211 1.2812-1.55527 0-.67911-.5482-1.16153-1.3615-1.16153-.60879 0-1.08243.28984-1.43145.84063l-.15469.2125c-.20313.25898-.46113.42324-.82929.42324-.41289 0-.80234-.30742-.80234-.79531 0-.18984.04257-.36289.10019-.53144.31562-.95235 1.49062-1.73828 3.23768-1.73828 1.8066 0 3.3342.95546 3.3342 2.64921 0 1.18457-.6522 1.767-1.6568 2.42032-.6575.42735-1.0114.77985-1.043 1.30935-.0018.0276-.0035.0764-.0053.1172-.0281.418-.3916.7455-.94862.7455zm-.01426 3.107c-.65449 0-1.20097-.4775-1.20097-1.1152 0-.6342.53848-1.1232 1.20097-1.1232.66248 0 1.19398.4828 1.19398 1.1232 0 .6457-.5395 1.1152-1.19398 1.1152z"/></svg>