<svg height="18.2476" width="18.5894" xmlns="http://www.w3.org/2000/svg"><path d="m0 0h18.5894v18.2476h-18.5894z" opacity="0"/><path d="m0 5.20469h1.91327v-1.8547c0-.94883.49316-1.41719 1.40117-1.41719h1.83868v-1.9132688h-1.94961c-2.10781 0-3.20351 1.0779288-3.20351 3.1714788zm6.58066-3.27189h5.06684v-1.9132688h-5.06684zm9.73414 3.27189h1.9133v-2.01368c0-2.08554-1.0957-3.1714788-3.2035-3.1714788h-1.9496v1.9132688h1.8387c.9 0 1.4011.46836 1.4011 1.41719zm0 6.42851h1.9133v-5.00098h-1.9133zm-3.2398 6.6144h1.9496c2.1078 0 3.2035-1.0876 3.2035-3.1714v-2.0155h-1.9133v1.8547c0 .9489-.5011 1.419-1.4011 1.419h-1.8387zm-6.49434 0h5.06684v-1.9132h-5.06684zm-3.37715 0h1.94961v-1.9132h-1.83868c-.90801 0-1.40117-.4701-1.40117-1.419v-1.8547h-1.91327v2.0155c0 2.0918 1.0957 3.1714 3.20351 3.1714zm-3.20351-6.6144h1.91327v-5.00098h-1.91327z" fill-opacity=".85"/><path d="m8.90605 11.0684c.54023 0 .88066-.3161.90527-.711.00176-.0373.00351-.0861.00527-.1154.02813-.50646.37501-.84747 1.00491-1.26329.9648-.62852 1.5877-1.18789 1.5877-2.32637 0-1.62285-1.4647-2.55449-3.1969-2.55449-1.66641 0-2.7998.76914-3.10664 1.6834-.05761.16504-.09043.33007-.09043.50664 0 .47109.36465.76171.75898.76171.36289 0 .59961-.15273.79121-.40644l.15293-.2045c.33125-.52949.79961-.81758 1.38087-.81758.79375 0 1.32068.46914 1.32068 1.13048 0 .62187-.4084.92304-1.23337 1.49765-.69786.48477-1.20586.98653-1.20586 1.87329v.1076c0 .5517.33242.8383.92538.8383zm-.01426 2.9892c.62617 0 1.14081-.4562 1.14081-1.0719 0-.6138-.50663-1.0718-1.14081-1.0718s-1.14609.4642-1.14609 1.0718c0 .6077.51992 1.0719 1.14609 1.0719z"/></svg>