<svg height="25.2707" width="24.1775" xmlns="http://www.w3.org/2000/svg"><path d="m0 0h24.1775v25.2707h-24.1775z" opacity="0"/><path d="m18.0952 2.88261h-12.37421c.03564-.83676.56166-1.32206 1.43135-1.32206h9.51156c.8697 0 1.3957.4853 1.4313 1.32206z"/><path d="m20.07 5.78717c-.3301-.05365-.6797-.08073-1.0472-.08073h-14.22945c-.3674 0-.71693.02707-1.04697.08071.10749-.98272.77418-1.5395 1.85107-1.5395h12.62935c1.0769 0 1.7369.55679 1.8432 1.53952z"/><path d="m4.79335 23.6826h14.22945c2.1079 0 3.2036-1.0877 3.2036-3.1715v-10.0433c0-2.08559-1.0957-3.17152-3.2036-3.17152h-14.22945c-2.10956 0-3.20351 1.08593-3.20351 3.17152v10.0433c0 2.0838 1.09395 3.1715 3.20351 3.1715zm.11894-1.9133c-.90801 0-1.40918-.4763-1.40918-1.4269v-9.7077c0-.94878.50117-1.42515 1.40918-1.42515h13.99961c.892 0 1.4012.47637 1.4012 1.42515v9.7077c0 .9506-.5092 1.4269-1.4012 1.4269z"/></svg>