<svg height="27.0793" width="18.0099" xmlns="http://www.w3.org/2000/svg"><path d="m0 0h18.0099v27.0793h-18.0099z" opacity="0"/><path d="m17.6486 11.115v9.6125c0 2.0856-1.0957 3.1715-3.2035 3.1715h-11.24159c-2.10781 0-3.20351-1.0859-3.20351-3.1715v-9.6125c0-2.08552 1.0957-3.17145 3.20351-3.17145h2.83399v1.91326h-2.72306c-.90801 0-1.40117.47639-1.40117 1.42519v9.2785c0 .9489.49316 1.4252 1.40117 1.4252h11.01176c.9 0 1.4092-.4763 1.4092-1.4252v-9.2785c0-.9488-.5092-1.42519-1.4092-1.42519h-2.7151v-1.91326h2.834c2.1078 0 3.2035 1.08593 3.2035 3.17145z" fill-opacity=".85"/><path d="m8.82031 16.1172c.4955 0 .9078-.4113.9078-.8901v-9.84117l-.07265-1.45254.60154.71621 1.3754 1.46426c.1561.17383.3742.26601.6029.26601.4391 0 .8079-.32636.8079-.783 0-.23496-.095-.40879-.259-.57285l-3.27972-3.15723c-.23047-.23046-.44218-.31113-.68417-.31113-.23399 0-.44395.08067-.68418.31113l-3.27969 3.15723c-.1623.16406-.25097.33789-.25097.57285 0 .45664.35273.783.7998.783.2207 0 .45488-.09218.61093-.26601l1.36739-1.46426.60957-.71621-.07265 1.45254v9.84117c0 .4788.40429.8901.8998.8901z"/></svg>