<svg height="20.7596" width="19.5121" xmlns="http://www.w3.org/2000/svg"><path d="m0 0h19.5121v20.7596h-19.5121z" opacity="0"/><path d="m3.20527 19.4796h11.37873c1.872 0 2.9597-1.0877 2.9597-3.1715v-10.32167l-1.915 1.91327v8.2477c0 .9488-.5012 1.4189-1.1557 1.4189h-11.15055c-.90801 0-1.40918-.4701-1.40918-1.4189v-10.87132c0-.95059.50117-1.42696 1.40918-1.42696h8.34805l1.9133-1.91327h-10.37853c-2.10156 0-3.20527 1.0877-3.20527 3.17148v11.20077c0 2.0918 1.10371 3.1715 3.20527 3.1715zm3.68827-6.5215 1.98691-.8406 8.91725-8.9092-1.4909-1.47304-8.90739 8.90744-.88067 1.9308c-.0957.2206.15059.475.3748.3846zm11.64966-10.48729.682-.69981c.376-.39199.3848-.927535.0123-1.288471l-.2563-.262499c-.3326-.3291-.8814-.2777338-1.2458.07871l-.6831.676759z"/></svg>