<svg height="22.4742" width="22.3404" xmlns="http://www.w3.org/2000/svg"><path d="m0 0h22.3404v22.4742h-22.3404z" opacity="0"/><path d="m4.21706 20.8053c.45663.3546 1.03124.2384 1.68944-.2414l5.0799-3.7356 5.0844 3.7356c.6617.4798 1.2265.596 1.6912.2414.4549-.345.5515-.9116.2881-1.6807l-2.0077-5.9687 5.1252-3.68325c.66-.46836.934-.9791.7532-1.53066-.1791-.5373-.6979-.80156-1.5114-.79004l-6.2857.04082-1.91-6.00156c-.2537-.784181-.6527-1.19121-1.2273-1.19121-.5684 0-.9674.407029-1.2211 1.19121l-1.90996 6.00156-6.28751-.04082c-.811713-.01152-1.330461.25274-1.5095613.78828-.1906237.55332.0931643 1.06406.7531223 1.53242l5.125199 3.68325-2.00762 5.9687c-.26347.7691-.16504 1.3357.28809 1.6807z"/></svg>