<svg height="22.4742" width="22.3404" xmlns="http://www.w3.org/2000/svg"><path d="m0 0h22.3404v22.4742h-22.3404z" opacity="0"/><path d="m4.21706 20.8053c.45663.3546 1.03124.2384 1.68944-.2414l5.0799-3.7356 5.0844 3.7356c.6617.4798 1.2265.596 1.6912.2414.4549-.345.5515-.9116.2881-1.6807l-2.0077-5.9687 5.1252-3.68325c.66-.46836.934-.9791.7532-1.53066-.1791-.5373-.6979-.80156-1.5114-.79004l-6.2857.04082-1.91-6.00156c-.2537-.784181-.6527-1.19121-1.2273-1.19121-.5684 0-.9674.407029-1.2211 1.19121l-1.90996 6.00156-6.28751-.04082c-.811713-.01152-1.330461.25274-1.5095613.78828-.1906237.55332.0931643 1.06406.7531223 1.53242l5.125199 3.68325-2.00762 5.9687c-.26347.7691-.16504 1.3357.28809 1.6807zm1.71385-2.3555c-.01777-.0178-.01152-.0275-.00176-.0826l1.85548-5.2449c.17011-.4741.10956-.7733-.33067-1.0674l-4.58907-3.14319c-.04531-.02578-.05508-.04531-.04707-.07285.00801-.02578.0293-.02754.08437-.02754l5.55666.13027c.50058.01152.76152-.15098.90781-.64629l1.57264-5.32735c.0098-.05508.0276-.07285.0471-.07285.0258 0 .0435.01777.0533.07285l1.5727 5.32735c.1463.49531.4072.65781.9095.64629l5.5584-.13027c.0551 0 .0747.00176.0827.02754.008.02754-.0098.04531-.0471.07285l-4.5908 3.14489c-.4385.2942-.5008.5916-.3307 1.0657l1.8555 5.2449c.0115.0551.016.0648-.0018.0826-.0178.0276-.0453.0098-.0808-.0178l-4.4055-3.3941c-.3969-.3092-.7477-.3092-1.1445 0l-4.40553 3.3941c-.03555.0276-.06309.0454-.08086.0178z"/></svg>