<svg height="14.6441" width="16.9853" xmlns="http://www.w3.org/2000/svg"><path d="m0 0h16.9853v14.6441h-16.9853z" opacity="0"/><path d="m13.8254 10.2943c0 2.6297-2.168 4.3453-5.55256 4.3453-2.75234 0-4.83105-1.1437-5.37148-2.9543-.05761-.2048-.09218-.408-.09218-.5996 0-.5904.38378-.9689.99901-.9689.4418 0 .69004.1908.91855.6195.55078 1.2795 1.84493 2.0534 3.55489 2.0534 1.93557 0 3.27447-.9393 3.27447-2.2348 0-1.09456-.8022-1.6971-2.77193-2.15374l-1.83378-.41914c-.28235-.06329-.54896-.13314-.79644-.21133h6.62055c.7183.6299 1.0509 1.44859 1.0509 2.52361zm-.5106-7.33219c.0479.15703.0709.32383.0709.49141 0 .56738-.381.92362-.9785.92362-.4398 0-.7111-.17754-.9306-.56972-.5436-1.25626-1.64106-1.94767-3.20473-1.94767-1.74571 0-2.99669.88595-2.99669 2.15118 0 1.02247.80644 1.58927 2.70274 2.03087l1.67265.37558c.38683.08744.74473.18309 1.07233.28887h-6.6412c-.72879-.63509-1.07936-1.46374-1.07936-2.51387 0-2.46875 2.20527-4.19238 5.26249-4.19238 2.58707 0 4.58247 1.20234 5.04997 2.96211z"/><path d="m.533979 7.77069h15.556021c.2985 0 .534-.24082.534-.53222 0-.28964-.2355-.53222-.534-.53222h-15.556021c-.298435 0-.533979.24258-.533979.53222 0 .2914.235544.53222.533979.53222z"/></svg>