<svg viewBox="0 0 19.7092 19.3594" xmlns="http://www.w3.org/2000/svg"><path d="m0 0h19.7092v19.3594h-19.7092z" opacity="0"/><path d="m.953509 6.52753c.626561 0 .959761-.35098.959761-.97129v-2.20625c0-.94883.49316-1.41719 1.40117-1.41719h2.25606c.63008 0 .97129-.34297.97129-.961518 0-.61855-.34121-.9517508-.97129-.9517508h-2.36699c-2.10781 0-3.20351 1.0779288-3.20351 3.1634688v2.37324c0 .62207.342966.97129.953509.97129zm17.434591 0c.6265 0 .9597-.34922.9597-.97129v-2.37324c0-2.08554-1.0939-3.1634688-3.2035-3.1634688h-2.375c-.6203 0-.9632.3332008-.9632.9517508 0 .618548.3447.961518.9632.961518h2.2561c.9 0 1.4092.46836 1.4092 1.41719v2.20625c0 .62207.3429.97129.9535.97129zm-15.18459 12.83187h2.36699c.63008 0 .97129-.343.97129-.9535 0-.6186-.34473-.9598-.97129-.9598h-2.25606c-.90801 0-1.40117-.4684-1.40117-1.419v-2.2062c0-.6283-.34121-.9713-.959761-.9713-.620308 0-.953509.343-.953509.9713v2.367c0 2.0918 1.0957 3.1715 3.20351 3.1715zm10.56579 0h2.375c2.1096 0 3.2035-1.0877 3.2035-3.1715v-2.367c0-.6283-.3412-.9713-.9597-.9713-.6186 0-.9535.3447-.9535.9713v2.2062c0 .9506-.5092 1.419-1.4092 1.419h-2.2561c-.6203 0-.9632.3412-.9632.9598 0 .6105.3429.9535.9632.9535z"/><path d="m4.55136 6.00136c0 .38242.3123.69472.69472.69472h8.86722c.3824 0 .6929-.3123.6929-.69472s-.3105-.70273-.6929-.70273h-8.86722c-.38242 0-.69472.32031-.69472.70273zm0 3.66914c0 .3842.3123.6965.69472.6965h8.86722c.3824 0 .6929-.3123.6929-.6965 0-.38066-.3105-.70097-.6929-.70097h-8.86722c-.38242 0-.69472.32031-.69472.70097zm0 3.6727c0 .3824.31406.7027.69648.7027h5.82306c.3824 0 .693-.3203.693-.7027 0-.3825-.3106-.6948-.693-.6948h-5.82306c-.38242 0-.69648.3123-.69648.6948z"/></svg>