<svg height="17.1433" width="20.4978" xmlns="http://www.w3.org/2000/svg"><path d="m0 0h20.4978v17.1433h-20.4978z" opacity="0"/><path d="m13.7889 1.72343h5.4779c.4769 0 .8697-.37676.8697-.861716 0-.476951-.3928-.85370612-.8697-.85370612h-5.4779c-.477 0-.8538.37675512-.8538.85370612 0 .484956.3768.861716.8538.861716zm0 5.11719h5.4779c.4769 0 .8697-.37676.8697-.86348 0-.47695-.3928-.8537-.8697-.8537h-5.4779c-.477 0-.8538.37675-.8538.8537 0 .48672.3768.86348.8538.86348zm-12.935194 5.11538h18.413094c.4769 0 .8697-.3847.8697-.8617 0-.4769-.3928-.8554-.8697-.8554h-18.413094c-.47695 0-.853706.3785-.853706.8554 0 .477.376756.8617.853706.8617zm0 5.1075h18.413094c.4769 0 .8697-.3768.8697-.8537 0-.477-.3928-.8618-.8697-.8618h-18.413094c-.47695 0-.853706.3848-.853706.8618 0 .4769.376756.8537.853706.8537z"/><path d="m2.74277 7.36816c1.28945 0 2.34297-.8793 2.34297-2.22226 0-1.27637-.87071-2.13008-2.04863-2.13008-.79649 0-1.3875.39805-1.62676 1.2291l.1791.06348c.0836-1.66875 1.19356-2.80801 2.81641-2.89668.3834-.02305.66914-.30957.66914-.691214 0-.459765-.38692-.720506-.88652-.720506-2.21055 0-4.1644563 1.86621-4.1644563 4.37207 0 1.82109 1.1718763 2.99609 2.7187463 2.99609zm6.10312 0c1.28591 0 2.34741-.8793 2.34741-2.22226 0-1.27637-.8707-2.13008-2.05483-2.13008-.79024 0-1.38125.39805-1.62852 1.2291l.18086.06348c.08184-1.66875 1.1918-2.81602 2.80669-2.89668.3914-.02305.6869-.30957.6869-.691214 0-.459765-.3772-.720506-.8946-.720506-2.19625 0-4.16617 1.86621-4.16617 4.37207 0 1.82109 1.18164 2.99609 2.72226 2.99609z"/></svg>