<svg height="14.7609" width="23.6652" xmlns="http://www.w3.org/2000/svg"><path d="m0 0h23.6652v14.7609h-23.6652z" opacity="0"/><path d="m18.1002 14.7529c1.6681 0 2.9447-.7822 3.5386-2.1762h.078v1.1987c.0105.6273.4101.9855.9693.9855.5795 0 .9791-.3767.9791-1.0199v-9.14179c0-.6369-.3996-1.03593-.9791-1.03593-.568 0-.9693.39903-.9693 1.03418v1.18887h-.078c-.5957-1.36992-1.922-2.19297-3.5386-2.19297-2.7098 0-4.4914 2.22363-4.4914 5.57851 0 3.37973 1.7816 5.58103 4.4914 5.58103zm.5593-1.7017c-1.8216 0-2.9693-1.4877-2.9693-3.87405 0-2.38282 1.1494-3.8838 2.9693-3.8838 1.8165 0 3.0049 1.54278 3.0049 3.89981 0 2.36054-1.1707 3.85804-3.0049 3.85804zm-17.57904 1.6457c.65644 0 .99472-.2657 1.20663-.9584l1.08751-3.036h5.57715l1.08925 3.036c.2102.6927.5484.9584 1.1986.9584.6846 0 1.1256-.411 1.1256-1.0487 0-.2345-.0381-.4382-.1338-.7013l-4.32342-11.67523c-.29492-.818939-.84824-1.221865-1.7369-1.221865-.84803 0-1.40584.396676-1.69451 1.213855l-4.346297 11.73344c-.0904297.2508-.130273.4633-.130273.6715 0 .6359.412691 1.0283 1.08046 1.0283zm2.85351-5.80921 2.20957-6.34551h.05586l2.20782 6.34551z"/></svg>