<svg height="21.1316" width="16.7527" xmlns="http://www.w3.org/2000/svg"><path d="m0 0h16.7527v21.1316h-16.7527z" opacity="0"/><path d="m6.18612 6.41445h6.87598c.3797 0 .6858-.31582.6858-.69375 0-.37969-.3061-.68574-.6858-.68574h-6.87598c-.37793 0-.68574.30605-.68574.68574 0 .37793.30781.69375.68574.69375zm0 2.71543h5.21918c.3779 0 .6857-.31407.6857-.69375 0-.37793-.3078-.68574-.6857-.68574h-5.21918c-.37793 0-.68574.30781-.68574.68574 0 .37968.30781.69375.68574.69375zm-3.03867 12.00172h12.70275c.5088 0 .9025-.3857.9025-.9025 0-.4332-.2959-.7518-.6646-.9172-1.1989-.5287-1.4387-2.182-.2155-3.3553.4819-.4326.8731-.9146.8731-1.9017v-10.84787c0-2.10156-1.0779-3.20527226-3.1715-3.20527226h-10.40272c-2.0918 0-3.17148 1.09570226-3.17148 3.20527226v14.75937c0 2.0855 1.08769 3.1652 3.14745 3.1652zm-1.23418-6.2773v-11.52833c0-.90801.46836-1.40919 1.41094-1.40919h10.09099c.9489 0 1.4172.50118 1.4172 1.40919v10.44023c0 .4711-.2693.7405-.7599.7405h-10.67466c-.58203 0-1.07598.1191-1.48457.3476zm1.48027 4.466c-1.03554 0-1.57695-.5818-1.57695-1.506 0-.8825.62324-1.4963 1.65078-1.4963h9.76813c.1129 0 .2196-.008.3084-.024-.4748 1.0296-.4142 2.146.0999 3.0263zm-.3332-3.9123h1.37949v-13.97227h-1.37949z"/></svg>
