<svg height="23.8449" width="19.2525" xmlns="http://www.w3.org/2000/svg"><path d="m0 0h19.2525v23.8449h-19.2525z" opacity="0"/><path d="m5.19062 4.49277h1.80234v-2.02832c0-.50567.35371-.83008.89746-.83008h3.45568c.5437 0 .8975.32441.8975.83008v2.02832h1.8023v-2.11895c0-1.493352-.9531-2.37382-2.5713-2.37382h-3.71269c-1.61816 0-2.57129.880468-2.57129 2.37382zm-4.326368 1.06249h17.532048c.4812 0 .8562-.38222.8562-.86347 0-.47773-.375-.85195-.8562-.85195h-17.532048c-.473238 0-.864252.37422-.864252.85195 0 .48925.391014.86347.864252.86347zm4.277928 16.48104h8.97622c1.4949 0 2.4658-.9152 2.5359-2.4119l.6713-14.25644h-1.8113l-.642 13.96564c-.0196.5859-.4061.975-.9629.975h-8.57425c-.54082 0-.92735-.3988-.95489-.975l-.67402-13.96564h-1.77929l.6793 14.26444c.07187 1.4967 1.025 2.4039 2.53593 2.4039zm1.6084-3.3062c.41152 0 .67675-.2608.66699-.6448l-.29922-10.23824c-.01152-.38047-.28027-.6332-.67402-.6332-.40801 0-.67148.26074-.66172.64296l.29121 10.23378c.01153.3885.28203.6395.67676.6395zm2.87656 0c.40446 0 .68926-.2573.68926-.6377v-10.23909c0-.38047-.2848-.63945-.68926-.63945-.40625 0-.683.25898-.683.63945v10.23909c0 .3804.27675.6377.683.6377zm2.88286 0c.3884 0 .6572-.251.6687-.6395l.2912-10.23378c.0098-.38222-.2537-.64296-.6617-.64296-.3938 0-.6625.25273-.674.64121l-.2912 10.23023c-.0098.384.2554.6448.667.6448z"/></svg>