<svg height="22.7625" width="23.1293" xmlns="http://www.w3.org/2000/svg"><path d="m0 0h23.1293v22.7625h-23.1293z" opacity="0"/><path d="m3.20527 14.8277h16.72053c2.1158 0 3.2035-1.0252 3.2035-2.9134v-5.2061c0-1.02226-.0182-1.75077-.5865-2.25116l-3.4905-3.15196c-1.1013-.980276-1.8789-1.30508-3.4033-1.30508h-8.16698c-1.5164 0-2.3037.324804-3.39706 1.30508l-3.49668 3.15196c-.5701143.50039-.58828 1.2289-.58828 2.25116v5.2061c0 1.8882 1.0957 2.9134 3.20527 2.9134zm8.35933-6.0523c-1.3154 0-2.14254-1.13164-2.14254-2.19239v-.03555c0-.39257-.23535-.75058-.75019-.75058h-6.09395c-.51446 0-.68946-.2416-.27012-.62286l3.1875-2.88067c.54649-.49863.91426-.6959 1.75938-.6959h8.62172c.8531 0 1.2129.19903 1.7593.6959l3.1876 2.87364c.4406.39903.2363.62989-.2639.62989h-6.1002c-.5166 0-.744.35801-.744.75058v.03555c0 1.06075-.8271 2.19239-2.1506 2.19239zm-8.27301 4.4375c-.90977 0-1.40293-.4764-1.40293-1.4252v-4.29513h5.87853c.30468 1.74258 1.82558 3.04373 3.79741 3.04373 1.9737 0 3.4946-1.30115 3.7975-3.04373h5.8785v4.29513c0 .9488-.5011 1.4252-1.4011 1.4252zm-.08632 9.3281h16.72053c2.106 0 3.2035-1.0877 3.2035-3.1715v-4.7105c0-.5848-.4352-1.2404-1.0791-1.2404h-7.591c-.5166 0-.744.358-.744.7505v.0373c0 1.0608-.8271 2.1924-2.1506 2.1924-1.3154 0-2.14254-1.1316-2.14254-2.1924v-.0373c0-.3925-.23535-.7505-.75019-.7505h-7.59277c-.642189 0-1.0791.6556-1.0791 1.2404v4.7105c0 2.0838 1.0957 3.1715 3.20527 3.1715zm.08632-1.8728c-.90977 0-1.40293-.4764-1.40293-1.4252v-4.2711h5.87853c.30468 1.7426 1.82558 3.0437 3.79741 3.0437 1.9737 0 3.4946-1.3011 3.7975-3.0437h5.8785v4.2711c0 .9488-.5011 1.4252-1.4011 1.4252z"/></svg>