<svg height="20.8422" width="12.0933" xmlns="http://www.w3.org/2000/svg"><path d="m0 0h12.0933v20.8422h-12.0933z" opacity="0"/><path d="m.690425 20.8422h10.343175c.3908 0 .6984-.2864.6984-.6799 0-.3918-.3076-.6879-.6984-.6879h-10.343175c-.38281 0-.690425.2961-.690425.6879 0 .3935.307615.6799.690425.6799z"/><path d="m5.86288 17.7404c3.60352 0 5.86912-2.1217 5.86912-5.2426v-8.28492c0-.68222-.4439-1.1121-1.1342-1.1121-.68042 0-1.11186.42988-1.11186 1.1121v8.08222c0 2.0793-1.33184 3.46-3.62306 3.46-2.28496 0-3.61505-1.3807-3.61505-3.46v-8.08222c0-.68222-.44745-1.1121-1.13593-1.1121-.678701 0-1.11014226.42988-1.11014226 1.1121v8.28492c0 3.1209 2.25761226 5.2426 5.86112226 5.2426z"/></svg>