<svg height="16.3246" width="24.4607" xmlns="http://www.w3.org/2000/svg"><path d="m0 0h24.4607v16.3246h-24.4607z" opacity="0"/><path d="m3.94746 16.3148h10.15934c2.4936 0 3.9475-1.4218 3.9475-3.8785v-8.56755c0-2.44688-1.4539-3.86875-3.9475-3.86875h-10.15934c-2.40547 0-3.94746 1.42187-3.94746 3.87226v8.62384c0 2.4531 1.45215 3.8187 3.94746 3.8187zm.31913-1.7418c-1.53652 0-2.40781-.816-2.40781-2.4087v-8.01372c0-1.62188.87129-2.41856 2.40781-2.41856h9.52111c1.5268 0 2.4061.81602 2.4061 2.41856v8.01372c0 1.5927-.8881 2.4087-2.4114 2.4087zm13.46461-9.19742v2.07343l4.5834-3.75352c.0827-.06484.1395-.11015.2239-.11015.1084 0 .159.08886.159.21855v8.75271c0 .128-.0506.2106-.159.2106-.0844 0-.1412-.0471-.2239-.1039l-4.5834-3.75178v2.06368l3.8493 3.2693c.4539.3785.9222.6383 1.3806.6383.8946 0 1.4996-.6488 1.4996-1.6062v-10.19262c0-.95918-.605-1.60801-1.4996-1.60801-.4601 0-.9267.25977-1.3806.63828z"/></svg>