<svg height="20.8152" width="18.8955" xmlns="http://www.w3.org/2000/svg"><path d="m0 0h18.8955v20.8152h-18.8955z" opacity="0"/><g fill-opacity=".85"><path d="m17.664 13.8431c.4834 0 .8702-.3849.8702-.8603v-5.15213c0-.47539-.3868-.87012-.8702-.87012-.4896 0-.8585.39473-.8585.87012v5.15213c0 .4754.3689.8603.8585.8603z"/><path d="m14.3072 18.6578c.4834 0 .8621-.385.8621-.8604v-14.77963c0-.47539-.3787-.87011-.8621-.87011-.4976 0-.8666.39472-.8666.87011v14.77963c0 .4754.369.8604.8666.8604z"/><path d="m10.9406 15.748c.4914 0 .8701-.3769.8701-.8603v-8.96192c0-.4834-.3787-.87011-.8701-.87011-.4896 0-.8586.38671-.8586.87011v8.96192c0 .4834.369.8603.8586.8603z"/><path d="m7.57401 20.8135c.49141 0 .87813-.385.87813-.8684v-19.074986c0-.483397-.38672-.870114-.87813-.870114-.48163 0-.85058.386717-.85058.870114v19.074986c0 .4834.36895.8684.85058.8684z"/><path d="m4.21542 17.015c.49141 0 .87188-.3849.87188-.8683v-11.4799c0-.4834-.38047-.87812-.87188-.87812-.47988 0-.85683.39472-.85683.87812v11.4799c0 .4834.37695.8683.85683.8683z"/></g><path d="m.850583 13.0771c.499417 0 .878117-.3867.878117-.8683v-3.60411c0-.48339-.3787-.87812-.878117-.87812-.481639 0-.850583.39473-.850583.87812v3.60411c0 .4816.368944.8683.850583.8683z"/></svg>