<svg height="22.3425" width="22.3305" xmlns="http://www.w3.org/2000/svg"><path d="m0 0h22.3305v22.3425h-22.3305z" opacity="0"/><path d="m5.25959 19.7087h2.09454c.18476 0 .31894.0534.45664.1911l1.48633 1.4765c1.2674 1.2772 2.4609 1.2692 3.7283 0l1.4863-1.4765c.1457-.1377.2719-.1911.4647-.1911h2.0865c1.799 0 2.6447-.8412 2.6447-2.6464v-2.0866c0-.191.0551-.3189.1928-.4646l1.4766-1.4846c1.2754-1.2674 1.2674-2.4609 0-3.73006l-1.4766-1.48457c-.1394-.1377-.1928-.27188-.1928-.45664v-2.09454c0-1.79101-.8412-2.64472-2.6447-2.64472h-2.0865c-.1928 0-.3207-.04707-.4647-.18477l-1.4863-1.476559c-1.2691-1.277147-2.4609-1.269139-3.7283.001758l-1.48633 1.474801c-.13594.1377-.27188.18477-.45664.18477h-2.09454c-1.79902 0-2.64472.83594-2.64472 2.64472v2.09454c0 .18476-.04707.3207-.18477.45664l-1.476559 1.48457c-1.275389 1.26916-1.267381 2.46266 0 3.73006l1.476559 1.4846c.1377.1457.18477.2736.18477.4646v2.0866c0 1.799.84746 2.6464 2.64472 2.6464zm2.69824-4.4109c-.51249 0-.91327-.407-.91327-.931 0-.2395.09218-.4647.27128-.6403l2.54689-2.5504-2.54689-2.55662c-.1791-.16934-.27128-.40254-.27128-.64199 0-.51602.40078-.90703.91327-.90703.26504 0 .4707.08867.6498.25977l2.55767 2.54961 2.5754-2.55762c.1888-.18887.3945-.26777.6498-.26777.5142 0 .9212.39902.9212.90702 0 .24746-.0841.46465-.2695.65l-2.5611 2.56463 2.5531 2.5407c.1773.1773.2695.4025.2695.65 0 .524-.407.931-.9293.931-.265 0-.4947-.0869-.6658-.2678l-2.5433-2.5478-2.53364 2.5478c-.1791.1809-.40879.2678-.67383.2678z"/></svg>