<svg height="15.7404" width="16.0884" xmlns="http://www.w3.org/2000/svg"><path d="m0 0h16.0884v15.7404h-16.0884z" opacity="0"/><path d="m.312676 15.4268c.42441.4147 1.140224.4094 1.544324.0053l6.00743-6.00743 6.00387 6.00563c.4112.4112 1.1262.4174 1.5426-.0052.4164-.4244.4182-1.1235.007-1.5363l-6.00387-6.01373 6.00387-6.00392c.4112-.41113.4174-1.118153-.007-1.534556-.4244-.4244105-1.1314-.4261683-1.5426-.007031l-6.00387 6.003917-6.00743-6.005675c-.4041-.4103483-1.127921-.4253872-1.544324.007031-.414645.424411-.4093721 1.130464-.005273 1.534554l6.007427 6.00568-6.007427 6.01723c-.4040991.4023-.41738 1.1181.005273 1.5345z"/></svg>