<svg height="38" viewBox="0 0 38 38" width="38" xmlns="http://www.w3.org/2000/svg"><path d="m15.3818359 8.4794922c1.6513672 0 3.7294922-1.1132813 4.9726563-2.616211 1.1318359-1.3730469 1.9296875-3.2470703 1.9296875-5.1396484 0-.2597656-.0185547-.5195313-.0556641-.7236328-1.8554687.0742187-4.0820312 1.2246093-5.399414 2.7832031-1.0576172 1.1875-2.022461 3.0800781-2.022461 4.9726562 0 .296875.0556641.5751954.0742188.6679688.1113281.0185547.296875.0556641.5009765.0556641zm-5.8261719 28.2402343c2.2636719 0 3.265625-1.5029296 6.0859376-1.5029296 2.8574218 0 3.5068359 1.4658203 6.0117187 1.4658203 2.2376953 0 3.7990723-1.8486036 5.2387119-3.8550147l.3181414-.4477796c.0527648-.0748338.1054188-.1497122.1579904-.2245495 1.7441407-2.5791015 2.4863282-5.0839844 2.5048829-5.2138672-.0212054-.0053013-.1363202-.0496054-.3180804-.1375102l-.1714799-.086132c-1.2435295-.6468284-4.4088772-2.7602545-4.4088772-7.1982328 0-4.7128906 3.7294922-6.828125 3.9521484-6.9951172-2.4677734-3.5439453-6.234375-3.6552734-7.2734375-3.6552734-2.7646484 0-5.0283203 1.6884766-6.4755859 1.6884766-1.5400391 0-3.5439454-1.5771485-5.9560547-1.5771485-4.5830078 0-9.2216797 3.7851563-9.2216797 10.9101563 0 4.453125 1.7070312 9.1474609 3.8408203 12.171875 1.8183594 2.5605469 3.4140625 4.6572265 5.7148437 4.6572265z" transform="translate(4 .5)"/></svg>