<svg height="38" viewBox="0 0 38 38" width="38" xmlns="http://www.w3.org/2000/svg"><path d="m38 20.2666672c0 2.0979167-.7421875 3.8890625-2.2265625 5.3734375s-3.2755208 2.2265625-5.3734375 2.2265625h-21.53333338c-2.44097214 0-4.52899302-.8675345-6.2640625-2.6026034-1.73506942-1.7350704-2.60260412-3.8230913-2.60260412-6.2640638 0-1.7416668.46840278-3.3348964 1.40520834-4.7796875.93680549-1.4447917 2.17048607-2.5234375 3.70104166-3.2359375-.02638896-.3694445-.03958338-.6531251-.03958338-.8510418 0-2.79722216.98958331-5.18541651 2.96875-7.1645832 1.97916658-1.97916669 4.36736108-2.96875 7.16458338-2.96875 2.0847223 0 3.9748265.58055552 5.6703125 1.74166662 1.6954856 1.16111104 2.9324648 2.67847221 3.7109375 4.55208338.9236106-.81805559 2.0187493-1.22708338 3.2854159-1.22708338 1.3986121 0 2.5927098.49479156 3.5822932 1.4843748.9895833.98958331 1.484375 2.18368058 1.484375 3.58229178 0 .9895834-.2704864 1.9-.8114591 2.73125 1.7020833.3958334 3.1072917 1.2831597 4.215625 2.6619791 1.1083333 1.37882 1.6625 2.9588549 1.6625 4.7401049z" fill="#35a1ef" transform="translate(0 4.5)"/></svg>