<svg viewBox="0 0 640 480" xmlns="http://www.w3.org/2000/svg"><path d="m0 0h640v480h-640z" fill="#039"/><circle cx="320" cy="249.8" fill="none" r="30.4" stroke="#fc0" stroke-width="27.5"/><circle cx="320" cy="249.8" fill="none" r="88.3" stroke="#fc0" stroke-width="27.5"/><path d="m404.7 165.1 84.7 84.7-84.7 84.7-84.7-84.7z" fill="#039"/><g fill="#fc0"><path d="m175.7 236.1h59.2v27.5h-59.2zm259.1 0h88.3v27.5h-88.3zm-71.8-48.7 38.8-38.8 19.4 19.5-38.7 38.7zm-56.7-138.8h27.5v107.1h-27.5z"/><circle cx="225.1" cy="159.6" r="13.7"/><circle cx="144.3" cy="249.8" r="13.7"/><circle cx="320" cy="381.4" r="13.7"/><circle cx="320" cy="425.5" r="13.7"/><circle cx="408.3" cy="249.8" r="13.7"/><path d="m208.3 341.5 19.5-19.4 19.4 19.4-19.4 19.5zm204.7 21 19.5-19.5 19.5 19.5-19.5 19.4z"/></g></svg>