<svg viewBox="0 0 640 480" xmlns="http://www.w3.org/2000/svg"><path d="m0 0h640v480h-640z" fill="#d52b1e"/><path d="m0 0h53.1l133.4 100.1c73.4 55 133.4 100 133.5 100s60.1-45 266.9-200.1h53.1v39.9l-133.4 100c-73.4 55-133.4 100.1-133.4 100.1s60 45.1 266.8 200.2v39.8h-53.1l-133.4-100c-73.4-55.1-133.4-100.1-133.5-100.1s-60.1 45-266.9 200.1h-53.1v-39.8l133.4-100.1c73.4-55 133.4-100.1 133.4-100.1s-60-45.1-266.8-200.1v-20z" fill="#009b48"/><path d="m288.1 0h63.8v208.1h288.1v63.8h-288.1v208.1h-63.8v-208.1h-288.1v-63.8h288.1v-104z" fill="#fff"/></svg>