<svg height="38" viewBox="0 0 38 38" width="38" xmlns="http://www.w3.org/2000/svg"><g fill="none" transform="translate(4)"><path d="m9.53142909 32.8211055.89558711.9014749 2.5721 2.4452354 3.4591482-.4323934 2.7024566-.810737.7920973-1.3325696 1.9475826-1.2485255.2675288-2.5797522.8408082.1910928 1.1297046-5.7728656-1.1870329-4.183062-2.2931121-3.9747285-1.5287416-5.9620907.5350605-5.50346949-4.9684096-.99368112-3.8218555.91724459-.7643694 1.87270843s-.24842027 1.68161403-.26753073 1.75805254c-.01910849.07643693.1146559 1.75805226.1146559 1.75805226l-.32485722 2.75173359-.49764827 3.4657234-1.56742703 3.9455909s-.75668857 3.8915387-1.02693412 3.8915387c-.27024547 0 .15139757 1.880805.15139757 1.880805l1.62207192 3.9000277z" fill="#fff"/><path d="m14.1133496.07181014c-2.7613153.34577749-4.77221988 2.78829084-4.5809387 5.56481054-.05885576 5.15968682.5208733 7.01364272-1.79510019 9.97016292-2.3159735 2.9565202-3.7275304 5.1341827-4.29352647 7.2451421-.34430609 1.3248426-.52872076 2.6499798-.52872076 4.0188663 0 0-.04904646.5601105.52872076.0382561.57972908-.5218542 2.20512852-.2942787 3.01733778 1.1594583.81220926 1.4537368 2.31401164 3.7098736 2.31401164 3.7098736l.75629629 1.0427275 1.04370855-.2942787s1.0456703-.6954787 0-2.2031666c-.58561468-.8652776-1.30954032-1.6276556-2.14431094-2.2561369 0 0-2.47684587-1.2663794-2.8966835-2.72404-.40708556-2.4955815.2668127-5.0465856 1.85493684-7.0146236 1.17711488-1.3909574-.25798434 1.1146297-.69744056 2.0285613-.97896719 2.0376839-1.09177404 4.7835006-1.05646059 6.1394388.01961857.5710969 1.45373686.937572 1.80589038 1.2098779.22953742.1772538-.87204591-2.0664252-.74942979-1.9002558.43651343-5.1930385 2.76621995-6.3495538 4.23368986-13.5064121-1.08981224-.6019962-.94365381-2.2130741.2373848-2.60829042-.5895384-.75364778-.8063237-1.73418447-.5885574-2.66616516.3472488-1.12610656.7533535-1.24774176 1.201638-1.28894077.4482846-.04119903 1.5400586.4463227 1.4086142 2.62202335.5198924-.05983667 1.0437085-.05983667 1.5636009 0 0 0-.4041428-2.02856129 1.0996215-2.72403999.8377134-.4092436 1.8490512-.10652889 2.3238209.6954787.552263 1.07725629.4610366 2.37178838-.235423 3.36164387.7847433.35225162 1.0388039 1.34112622.5228352 2.02856132l1.2752077 3.8834981s1.6783697 3.3037691 2.4886171 5.1587058c.4835979 1.0897141.8161329 2.2401479.9887766 3.4195187h.9269777s1.4694319-3.5627342-1.9157543-6.9959859c-.2295374-.2638699-.068665-.0608176 0 0 .0686651.0608176 3.483279 3.1821339 2.669108 7.28536.6513367.4610367 2.7014786.8328088 2.3179354 3.0143951.773953.1275207.9887763 0 .9887763 0 .5277398-2.2412268.346268-4.5910422-.5208731-6.7242687-.954444-2.3028291-2.3316684-4.4066276-4.0600656-6.2024144-1.2977691-1.4008648-2.0050189-3.2491314-1.9716674-5.15870594.1618534-2.4238757-.1942238-4.85442171-1.0437084-7.13037331-.6984216-1.37202546-2.1168449-2.22680704-3.6559226-2.20316665-.9426728-.09220733-1.8912312-.08926455-2.8329231.00980929z" fill="#000"/><path d="m10.4270182 33.7225814s3.1958668 2.612214 6.2033953 1.3733008c1.1467061-.4100285 4.2052428-2.1614774 5.2695509-2.7522909 0 0-.8161329 3.9687408-.4178758 4.5229658.3982573.5542248-4.3474775-.5691351-6.4927694-.4857562-2.1452918.0833791-3.6441514.2757394-5.67663642.3826605.63564203-.8430104-5.39020515-7.5132298-6.35740122-9.6580312-.39727627-.8799914 2.8858933-.4145406 2.8858933-.4145406z" fill="#000"/><path d="m4.37860963 27.8154265c-1.33700629.2226709-1.17711487.9740627-1.73624443 1.4713936-.55912956.4973311-1.08981218.4374944-1.69406448.8004382-.6042523.3629437-.91618773.9014738-.65133689 2.1492156.19196826.7744307.10586857 1.5916833-.24327041 2.309107-.18049094.5610913.05885575 1.4556987 1.26049384 1.4998404 1.12723817.0061359 2.24870232.1614917 3.3351588.4620178 1.86376519.4286658 3.0251852 1.6097045 4.27096511.5885573.70264733-.479551 1.09691453-1.2968613 1.03488015-2.1452919-.20625237-.8703732-.66407094-1.6608097-1.3164068-2.2728125-.84582791-.7980873-1.52092113-1.7595028-1.98441947-2.8260566-.38256234-.7347158-.93678726-2.2590797-2.27575542-2.0364089z" fill="#f0b800"/><path d="m23.1844399 23.6956226c.3089928 0 .8766378-3.9745665.8680115-3.2924147.8599167 1.4523037.7184325 3.2262041.7184325 3.2262041l-.086626 10.7034995-2.6048826-5.4887582s1.3280153-3.8310821 1.1050627-5.1485307z" fill="#000"/><path d="m24.8256245 28.592839c-1.2600058.2098375-.9805493.5971544-1.5080849 1.0678181-.5275355.4706637-1.2090172.2029739-1.7777359.5461661-.5687186.3431923-1.1256706.3922198-.8736696 1.568879.2520013 1.1766592 2.0503289 2.0689592.9266193 3.87317-.4451694.6226487-1.7071365 1.0609544-.5726408 1.1031179 1.3185632-.037962 2.6370084.079533 3.9280807.3500563 1.7581249.4030056 2.7994684 1.1590093 3.9751471.1961098.6623298-.4509991 1.0341363-1.2207697.9756466-2.0199317-.192644-.8227446-.6241891-1.5701876-1.2403949-2.1483837-.7964096-.7503818-1.4304841-1.6561072-1.8630438-2.661211-.3598617-.6903067-.7099177-2.0856284-1.9699238-1.8757908z" fill="#f0b800" transform="matrix(-.03501287 .99938686 -.99938686 -.03501287 59.264211 9.113713)"/><g fill="#000" transform="translate(11.3779 6.85)"><path d="m12.8135642 18.0883318s-2.3336303-.4679032-2.0099237 1.5224018c.3237066 1.9903051 1.1133545 2.3738483 1.1133545 2.3738483.5728081.4298106 1.360603.4298106 1.9334111 0 .6066798-.3602983 1.1307368-.844249 1.5380967-1.4203851 0 0 .6091571-1.0152617-.7916096-1.7450729-.5455345-.3490979-1.1496963-.596678-1.783329-.7307921z"/><path d="m.73146094.11182591c.40218092 0 .72784937.55128213.72784937 1.23106597-.00040109.15214865-.01750636.30379336-.05100833.45220828-.26723603.29883747-.60421026.526969-.98092905.66408898-.29850326-.29170048-.45349659-.69999306-.42376135-1.11629726 0-.67978384.32566845-1.23106597.72784936-1.23106597z"/><path d="m5.20842115 0c.64614417.067153 1.11924814.63976592 1.0633271 1.28697891-.0220749.46414292-.21451237.90385031-.54049191 1.23498968-.15008215.13536822-.95346303-.22365181-1.35172025-.42964692-.12742991-.24808926-.17959466-.52800601-.15008214-.80534276 0-.71117357.39237163-1.28697891.9789672-1.28697891z"/></g><path d="m12.8371609 9.40142638c-.526925.31302257-1.0266622.66969652-1.493955 1.06626992-.2027431.1491806-.3224538.3858905-.3224538.6376039 0 .2517133.1197107.4884233.3224538.6376038.5375499.5260405 1.1223597 1.0015063 1.7470347 1.4203853.5304722.4527891 1.2929454.5103118 1.8853456.1422347.8337897-.3649056 2.2718317-1.1771148 2.2718317-1.1771148s1.5636009-1.258532 0-1.9687247c-1.5636009-.71019258-1.2565701-.64937498-2.2718317-1.03586103-.7011153-.36153348-1.5528596-.25096301-2.1384253.27760291z" fill="#f0b800"/></g></svg>