<svg height="38" viewBox="0 0 38 38" width="38" xmlns="http://www.w3.org/2000/svg"><path d="m28.2703878 6.42034697 3.1521776-5.46047269c.1778794-.3061161.0703253-.69496912-.2316575-.87284868-.3019799-.17787668-.6949691-.07446021-.868711.23165733l-3.1935539 5.53079383c-2.4365346-1.11277985-5.1791738-1.73329451-8.128666-1.73329451-2.9494779 0-5.6921314.62050748-8.128666 1.73329451l-3.19355389-5.53079383c-.17787956-.30611754-.56673114-.40953401-.87284868-.23165733-.30611898.17787956-.40953689.56673258-.23165733.87284868l3.15217752 5.46047269c-5.43565262 2.94535319-9.11734411 8.44718783-9.72542862 14.88801733h38c-.6080989-6.4408726-4.2897904-11.94272163-9.7295677-14.88801733zm-17.9947657 9.55168813c-.88112247 0-1.59263782-.715653-1.59263782-1.5926379 0-.8811239.71565299-1.5926378 1.59263782-1.5926378.8811226 0 1.5926737.7156515 1.5926737 1.5926378.0041177.8769835-.7115526 1.5926379-1.5926737 1.5926379zm17.4446138 0c-.8811211 0-1.5926379-.715653-1.5926379-1.5926379 0-.8811239.7156545-1.5926378 1.5926379-1.5926378.881124 0 1.5926735.7156515 1.5926735 1.5926378.0041034.8769835-.7115494 1.5926379-1.5926735 1.5926379z" fill="#32de84" transform="translate(0 8)"/></svg>